<svg id="svg" version="1.1" xmlns="http://www.w3.org/2000/svg" xmlns:xlink="http://www.w3.org/1999/xlink" width="400" height="400" viewBox="0, 0, 400,400"><g id="svgg"><path id="path0" d="M262.800 67.200 C 262.800 67.420,262.440 67.600,262.000 67.600 C 261.560 67.600,261.200 67.780,261.200 68.000 C 261.200 68.220,260.924 68.400,260.587 68.400 C 259.838 68.400,257.200 70.969,257.200 71.698 C 257.200 71.987,256.840 72.483,256.400 72.800 C 255.960 73.117,255.600 73.697,255.600 74.088 C 255.600 74.480,255.420 74.800,255.200 74.800 C 254.980 74.800,254.800 75.160,254.800 75.600 C 254.800 76.040,254.620 76.400,254.400 76.400 C 254.180 76.400,254.000 76.749,254.000 77.176 C 254.000 77.603,253.820 78.064,253.600 78.200 C 253.380 78.336,253.200 78.887,253.200 79.424 C 253.200 79.961,253.020 80.400,252.800 80.400 C 252.580 80.400,252.400 81.300,252.400 82.400 C 252.400 83.500,252.220 84.400,252.000 84.400 C 251.780 84.400,251.600 85.120,251.600 86.000 C 251.600 86.880,251.780 87.600,252.000 87.600 C 252.220 87.600,252.400 88.058,252.400 88.618 C 252.400 90.047,254.072 91.600,255.610 91.600 C 256.961 91.600,258.000 90.830,258.000 89.829 C 258.000 89.483,258.180 89.200,258.400 89.200 C 258.620 89.200,258.800 88.840,258.800 88.400 C 258.800 87.960,258.980 87.600,259.200 87.600 C 259.420 87.600,259.600 87.306,259.600 86.946 C 259.600 86.587,261.220 84.702,263.200 82.757 C 265.180 80.813,266.800 78.947,266.800 78.611 C 266.800 78.275,266.980 78.000,267.200 78.000 C 267.420 78.000,267.600 77.368,267.600 76.595 C 267.600 75.822,267.823 74.832,268.096 74.395 C 268.491 73.762,268.491 73.438,268.096 72.805 C 267.823 72.368,267.600 71.378,267.600 70.605 C 267.600 69.832,267.420 69.200,267.200 69.200 C 266.980 69.200,266.800 68.917,266.800 68.571 C 266.800 68.226,266.543 67.686,266.229 67.371 C 265.582 66.725,262.800 66.586,262.800 67.200 M130.800 72.000 C 130.800 74.133,130.963 75.600,131.200 75.600 C 131.420 75.600,131.600 76.140,131.600 76.800 C 131.600 77.460,131.780 78.000,132.000 78.000 C 132.220 78.000,132.400 78.540,132.400 79.200 C 132.400 79.860,132.580 80.400,132.800 80.400 C 133.020 80.400,133.200 80.816,133.200 81.325 C 133.200 81.833,133.560 82.636,134.000 83.108 C 134.440 83.580,134.800 84.244,134.800 84.583 C 134.800 84.922,134.980 85.200,135.200 85.200 C 135.420 85.200,135.600 85.520,135.600 85.912 C 135.600 86.303,135.960 86.883,136.400 87.200 C 136.840 87.517,137.200 88.097,137.200 88.488 C 137.200 88.880,137.380 89.200,137.600 89.200 C 137.820 89.200,138.000 89.443,138.000 89.741 C 138.000 90.038,138.540 90.846,139.200 91.537 C 139.860 92.228,140.400 93.064,140.400 93.396 C 140.400 93.728,140.580 94.000,140.800 94.000 C 141.020 94.000,141.200 94.320,141.200 94.712 C 141.200 95.103,141.560 95.683,142.000 96.000 C 142.440 96.317,142.800 96.785,142.800 97.040 C 142.800 97.295,143.520 98.245,144.400 99.152 C 145.280 100.059,146.000 100.962,146.000 101.160 C 146.000 101.357,146.900 102.438,148.000 103.561 C 149.100 104.685,150.000 105.748,150.000 105.924 C 150.000 106.445,152.668 109.200,153.172 109.200 C 154.016 109.200,155.600 107.254,155.600 106.218 C 155.600 105.658,155.780 105.200,156.000 105.200 C 156.244 105.200,156.400 103.333,156.400 100.400 C 156.400 97.467,156.244 95.600,156.000 95.600 C 155.780 95.600,155.600 94.700,155.600 93.600 C 155.600 92.500,155.420 91.600,155.200 91.600 C 154.980 91.600,154.800 91.240,154.800 90.800 C 154.800 90.360,154.620 90.000,154.400 90.000 C 154.180 90.000,154.000 89.460,154.000 88.800 C 154.000 88.140,153.820 87.600,153.600 87.600 C 153.380 87.600,153.200 87.240,153.200 86.800 C 153.200 86.360,153.020 86.000,152.800 86.000 C 152.580 86.000,152.400 85.640,152.400 85.200 C 152.400 84.760,152.220 84.400,152.000 84.400 C 151.780 84.400,151.600 84.080,151.600 83.688 C 151.600 83.297,151.240 82.717,150.800 82.400 C 150.360 82.083,150.000 81.575,150.000 81.272 C 150.000 80.969,149.460 80.217,148.800 79.600 C 148.140 78.983,147.600 78.300,147.600 78.081 C 147.600 77.513,141.750 71.600,141.188 71.600 C 140.931 71.600,140.217 71.060,139.600 70.400 C 138.983 69.740,138.202 69.200,137.863 69.200 C 137.524 69.200,137.136 69.020,137.000 68.800 C 136.864 68.580,135.413 68.400,133.776 68.400 L 130.800 68.400 130.800 72.000 M325.200 70.400 C 325.200 70.620,324.300 70.800,323.200 70.800 C 322.100 70.800,321.200 70.980,321.200 71.200 C 321.200 71.420,320.581 71.600,319.824 71.600 C 319.067 71.600,318.336 71.780,318.200 72.000 C 318.064 72.220,317.603 72.400,317.176 72.400 C 316.749 72.400,316.400 72.580,316.400 72.800 C 316.400 73.020,315.860 73.200,315.200 73.200 C 314.540 73.200,314.000 73.380,314.000 73.600 C 314.000 73.820,313.640 74.000,313.200 74.000 C 312.760 74.000,312.400 74.180,312.400 74.400 C 312.400 74.620,312.040 74.800,311.600 74.800 C 311.160 74.800,310.800 74.980,310.800 75.200 C 310.800 75.420,310.557 75.600,310.259 75.600 C 309.962 75.600,309.154 76.140,308.463 76.800 C 307.772 77.460,307.020 78.000,306.790 78.000 C 306.250 78.000,303.600 80.647,303.600 81.186 C 303.600 81.413,302.880 82.341,302.000 83.248 C 301.120 84.155,300.400 85.145,300.400 85.448 C 300.400 85.752,300.220 86.000,300.000 86.000 C 299.780 86.000,299.600 86.540,299.600 87.200 C 299.600 87.860,299.420 88.400,299.200 88.400 C 298.980 88.400,298.800 88.940,298.800 89.600 C 298.800 90.764,301.606 91.537,302.067 90.500 C 302.140 90.335,303.055 89.767,304.100 89.237 C 305.145 88.708,306.000 88.123,306.000 87.937 C 306.000 87.752,306.360 87.600,306.800 87.600 C 307.240 87.600,307.600 87.420,307.600 87.200 C 307.600 86.980,307.920 86.800,308.312 86.800 C 308.703 86.800,309.283 86.440,309.600 86.000 C 309.917 85.560,310.457 85.200,310.800 85.200 C 311.143 85.200,311.683 84.840,312.000 84.400 C 312.317 83.960,312.897 83.600,313.288 83.600 C 313.680 83.600,314.000 83.420,314.000 83.200 C 314.000 82.980,314.236 82.800,314.525 82.800 C 314.813 82.800,315.436 82.440,315.908 82.000 C 316.380 81.560,317.044 81.200,317.383 81.200 C 317.722 81.200,318.000 81.020,318.000 80.800 C 318.000 80.580,318.243 80.400,318.541 80.400 C 318.838 80.400,319.646 79.860,320.337 79.200 C 321.028 78.540,321.778 78.000,322.004 78.000 C 324.000 78.000,328.220 71.762,327.029 70.571 C 326.373 69.916,325.200 69.806,325.200 70.400 M193.400 77.600 C 193.264 77.820,192.889 78.000,192.566 78.000 C 191.553 78.000,188.400 81.473,188.400 82.589 C 188.400 83.145,188.220 83.600,188.000 83.600 C 187.754 83.600,187.600 85.600,187.600 88.800 C 187.600 92.000,187.754 94.000,188.000 94.000 C 188.220 94.000,188.400 94.900,188.400 96.000 C 188.400 97.100,188.580 98.000,188.800 98.000 C 189.020 98.000,189.200 98.881,189.200 99.957 C 189.200 102.405,189.186 102.400,195.358 102.400 C 200.196 102.400,200.262 102.412,201.325 103.522 L 202.400 104.644 202.400 122.722 L 202.400 140.800 207.000 140.800 L 211.600 140.800 211.600 136.224 C 211.600 133.604,211.771 131.542,212.000 131.400 C 212.220 131.264,212.400 130.533,212.400 129.776 C 212.400 129.019,212.580 128.400,212.800 128.400 C 213.020 128.400,213.200 127.860,213.200 127.200 C 213.200 126.540,213.380 126.000,213.600 126.000 C 213.820 126.000,214.000 125.651,214.000 125.224 C 214.000 124.797,214.180 124.336,214.400 124.200 C 214.620 124.064,214.800 123.513,214.800 122.976 C 214.800 122.439,214.980 122.000,215.200 122.000 C 215.420 122.000,215.600 121.640,215.600 121.200 C 215.600 120.760,215.780 120.400,216.000 120.400 C 216.220 120.400,216.400 119.860,216.400 119.200 C 216.400 118.540,216.580 118.000,216.800 118.000 C 217.020 118.000,217.200 117.460,217.200 116.800 C 217.200 116.140,217.380 115.600,217.600 115.600 C 217.820 115.600,218.000 114.880,218.000 114.000 C 218.000 113.120,218.180 112.400,218.400 112.400 C 218.620 112.400,218.800 111.860,218.800 111.200 C 218.800 110.540,218.980 110.000,219.200 110.000 C 219.420 110.000,219.600 109.280,219.600 108.400 C 219.600 107.520,219.780 106.800,220.000 106.800 C 220.228 106.800,220.400 105.608,220.400 104.024 C 220.400 102.497,220.580 101.136,220.800 101.000 C 221.020 100.864,221.200 99.233,221.200 97.376 C 221.200 95.392,221.035 94.000,220.800 94.000 C 220.578 94.000,220.400 92.933,220.400 91.600 C 220.400 90.267,220.222 89.200,220.000 89.200 C 219.780 89.200,219.600 88.660,219.600 88.000 C 219.600 87.340,219.420 86.800,219.200 86.800 C 218.980 86.800,218.800 86.440,218.800 86.000 C 218.800 85.560,218.620 85.200,218.400 85.200 C 218.180 85.200,218.000 84.880,218.000 84.488 C 218.000 84.097,217.640 83.517,217.200 83.200 C 216.760 82.883,216.400 82.387,216.400 82.099 C 216.400 81.811,216.085 81.457,215.700 81.312 C 215.315 81.167,214.523 80.543,213.940 79.925 C 213.356 79.306,212.591 78.800,212.240 78.800 C 211.888 78.800,211.600 78.620,211.600 78.400 C 211.600 78.180,211.251 78.000,210.824 78.000 C 210.397 78.000,209.936 77.820,209.800 77.600 C 209.649 77.355,206.470 77.200,201.600 77.200 C 196.730 77.200,193.551 77.355,193.400 77.600 M270.800 91.200 C 270.800 92.800,270.971 94.000,271.200 94.000 C 271.420 94.000,271.600 94.360,271.600 94.800 C 271.600 95.483,271.867 95.600,273.429 95.600 C 275.316 95.600,276.400 94.954,276.400 93.829 C 276.400 93.483,276.580 93.200,276.800 93.200 C 277.020 93.200,277.200 92.660,277.200 92.000 C 277.200 91.340,277.020 90.800,276.800 90.800 C 276.580 90.800,276.400 90.440,276.400 90.000 C 276.400 89.467,276.133 89.200,275.600 89.200 C 275.160 89.200,274.800 89.020,274.800 88.800 C 274.800 88.580,273.900 88.400,272.800 88.400 L 270.800 88.400 270.800 91.200 M169.200 94.400 C 169.200 94.620,168.906 94.800,168.547 94.800 C 167.340 94.800,166.001 96.852,166.000 98.700 C 166.000 99.635,166.180 100.400,166.400 100.400 C 166.620 100.400,166.800 101.043,166.800 101.829 C 166.800 104.646,168.814 105.212,171.013 103.013 C 172.072 101.954,172.400 101.293,172.400 100.213 C 172.400 99.436,172.580 98.800,172.800 98.800 C 173.020 98.800,173.200 98.260,173.200 97.600 C 173.200 96.940,173.020 96.400,172.800 96.400 C 172.580 96.400,172.400 96.117,172.400 95.771 C 172.400 95.426,172.143 94.886,171.829 94.571 C 171.179 93.922,169.200 93.793,169.200 94.400 M249.400 101.600 C 249.264 101.820,248.803 102.000,248.376 102.000 C 247.296 102.000,247.312 104.340,248.400 105.508 C 248.840 105.980,249.200 106.567,249.200 106.812 C 249.200 107.590,250.307 108.400,251.371 108.400 C 252.133 108.400,252.400 108.193,252.400 107.600 C 252.400 107.160,252.580 106.800,252.800 106.800 C 253.020 106.800,253.200 106.440,253.200 106.000 C 253.200 105.560,253.380 105.200,253.600 105.200 C 254.207 105.200,254.078 103.221,253.429 102.571 C 253.114 102.257,252.585 102.000,252.252 102.000 C 251.919 102.000,251.536 101.820,251.400 101.600 C 251.264 101.380,250.814 101.200,250.400 101.200 C 249.986 101.200,249.536 101.380,249.400 101.600 M129.400 105.600 C 129.264 105.820,128.887 106.000,128.563 106.000 C 127.168 106.000,125.200 108.684,125.200 110.587 C 125.200 111.584,125.380 112.400,125.600 112.400 C 125.820 112.400,126.000 112.635,126.000 112.922 C 126.000 113.697,128.607 116.400,129.354 116.400 C 129.709 116.400,130.000 116.580,130.000 116.800 C 130.000 117.020,130.320 117.200,130.712 117.200 C 131.103 117.200,131.683 117.560,132.000 118.000 C 132.317 118.440,132.897 118.800,133.288 118.800 C 133.680 118.800,134.000 118.980,134.000 119.200 C 134.000 119.420,134.360 119.600,134.800 119.600 C 135.240 119.600,135.600 119.780,135.600 120.000 C 135.600 120.220,136.320 120.400,137.200 120.400 C 138.533 120.400,138.800 120.267,138.800 119.600 C 138.800 119.160,138.620 118.800,138.400 118.800 C 138.180 118.800,138.000 118.440,138.000 118.000 C 138.000 117.560,137.820 117.200,137.600 117.200 C 137.380 117.200,137.200 116.840,137.200 116.400 C 137.200 115.960,137.020 115.600,136.800 115.600 C 136.580 115.600,136.400 115.240,136.400 114.800 C 136.400 114.360,136.220 114.000,136.000 114.000 C 135.780 114.000,135.600 113.460,135.600 112.800 C 135.600 112.140,135.420 111.600,135.200 111.600 C 134.980 111.600,134.800 111.060,134.800 110.400 C 134.800 109.740,134.620 109.200,134.400 109.200 C 134.180 109.200,134.000 108.975,134.000 108.700 C 133.999 107.937,132.189 106.000,131.477 106.000 C 131.131 106.000,130.736 105.820,130.600 105.600 C 130.464 105.380,130.194 105.200,130.000 105.200 C 129.806 105.200,129.536 105.380,129.400 105.600 M295.600 108.800 C 295.600 109.020,294.880 109.200,294.000 109.200 C 293.120 109.200,292.400 109.380,292.400 109.600 C 292.400 109.820,291.680 110.000,290.800 110.000 C 289.920 110.000,289.200 110.180,289.200 110.400 C 289.200 110.620,288.761 110.800,288.224 110.800 C 287.687 110.800,287.136 110.980,287.000 111.200 C 286.864 111.420,286.443 111.600,286.065 111.600 C 285.686 111.600,285.117 111.960,284.800 112.400 C 284.483 112.840,283.903 113.200,283.512 113.200 C 283.120 113.200,282.800 113.380,282.800 113.600 C 282.800 113.820,282.440 114.000,282.000 114.000 C 281.560 114.000,281.200 114.180,281.200 114.400 C 281.200 114.620,280.840 114.800,280.400 114.800 C 279.960 114.800,279.600 114.980,279.600 115.200 C 279.600 115.420,279.240 115.600,278.800 115.600 C 278.360 115.600,278.000 115.780,278.000 116.000 C 278.000 116.220,277.764 116.400,277.475 116.400 C 277.187 116.400,276.564 116.760,276.092 117.200 C 275.620 117.640,274.956 118.000,274.617 118.000 C 274.278 118.000,274.000 118.180,274.000 118.400 C 274.000 118.620,273.712 118.800,273.360 118.800 C 273.009 118.800,272.217 119.340,271.600 120.000 C 270.983 120.660,270.293 121.200,270.065 121.200 C 269.495 121.200,259.600 131.054,259.600 131.622 C 259.600 131.873,259.060 132.583,258.400 133.200 C 257.740 133.817,257.200 134.569,257.200 134.872 C 257.200 135.175,256.840 135.683,256.400 136.000 C 255.960 136.317,255.600 136.897,255.600 137.288 C 255.600 137.680,255.420 138.000,255.200 138.000 C 254.980 138.000,254.800 138.320,254.800 138.712 C 254.800 139.103,254.440 139.683,254.000 140.000 C 253.560 140.317,253.200 140.857,253.200 141.200 C 253.200 141.543,252.840 142.083,252.400 142.400 C 251.960 142.717,251.600 143.257,251.600 143.600 C 251.600 143.943,251.240 144.483,250.800 144.800 C 250.360 145.117,250.000 145.610,250.000 145.896 C 250.000 147.885,243.776 152.292,242.671 151.085 C 241.657 149.976,241.079 148.640,241.546 148.485 C 241.803 148.399,242.000 147.479,242.000 146.367 C 242.000 145.285,242.180 144.400,242.400 144.400 C 242.620 144.400,242.800 143.680,242.800 142.800 C 242.800 141.920,242.980 141.200,243.200 141.200 C 243.422 141.200,243.600 140.133,243.600 138.800 C 243.600 137.467,243.422 136.400,243.200 136.400 C 242.980 136.400,242.800 135.937,242.800 135.371 C 242.800 134.123,241.954 133.200,240.810 133.200 C 239.646 133.200,238.000 134.946,238.000 136.182 C 238.000 136.742,237.820 137.200,237.600 137.200 C 237.380 137.200,237.200 137.920,237.200 138.800 C 237.200 139.680,237.020 140.400,236.800 140.400 C 236.580 140.400,236.400 140.854,236.400 141.409 C 236.400 142.540,232.456 146.800,231.409 146.800 C 230.750 146.800,230.706 146.388,230.797 141.100 C 230.831 139.143,230.694 138.000,230.425 138.000 C 230.191 138.000,230.000 137.537,230.000 136.971 C 230.000 135.814,229.173 134.800,228.229 134.800 C 227.883 134.800,227.600 134.620,227.600 134.400 C 227.600 134.180,226.880 134.000,226.000 134.000 C 225.120 134.000,224.400 134.180,224.400 134.400 C 224.400 134.620,224.055 134.800,223.634 134.800 C 223.167 134.800,222.659 135.269,222.336 136.000 C 222.044 136.660,221.669 137.200,221.502 137.200 C 221.336 137.200,221.200 137.560,221.200 138.000 C 221.200 138.440,221.020 138.800,220.800 138.800 C 220.580 138.800,220.400 139.250,220.400 139.800 C 220.400 140.619,220.595 140.800,221.478 140.800 C 222.103 140.800,223.028 141.252,223.678 141.875 L 224.800 142.950 224.800 153.200 L 224.800 163.450 223.678 164.525 L 222.556 165.600 212.078 165.600 L 201.600 165.600 201.600 175.176 C 201.600 181.129,201.751 184.846,202.000 185.000 C 202.259 185.160,202.400 193.650,202.400 209.162 C 202.400 235.532,202.343 234.914,204.881 236.180 C 206.333 236.905,216.573 237.090,217.000 236.400 C 217.136 236.180,218.036 236.000,219.000 236.000 C 219.964 236.000,220.864 235.820,221.000 235.600 C 221.410 234.937,223.431 235.150,224.138 235.931 C 224.719 236.573,224.800 237.961,224.800 247.270 C 224.800 258.786,224.720 259.200,222.492 259.200 C 222.027 259.200,221.536 259.380,221.400 259.600 C 221.264 259.820,219.824 260.000,218.200 260.000 C 216.576 260.000,215.136 260.180,215.000 260.400 C 214.845 260.650,210.870 260.800,204.400 260.800 C 197.930 260.800,193.955 260.650,193.800 260.400 C 193.664 260.180,192.944 260.000,192.200 260.000 C 191.456 260.000,190.736 259.820,190.600 259.600 C 190.464 259.380,189.924 259.200,189.400 259.200 C 188.876 259.200,188.336 259.020,188.200 258.800 C 188.064 258.580,187.535 258.400,187.025 258.400 C 186.515 258.400,185.871 258.127,185.594 257.793 C 185.317 257.459,184.485 256.898,183.745 256.547 C 183.005 256.196,182.400 255.749,182.400 255.554 C 182.400 255.359,182.167 255.200,181.883 255.200 C 181.255 255.200,178.093 252.037,177.458 250.773 C 177.206 250.273,176.775 249.789,176.500 249.698 C 175.862 249.488,175.760 279.804,176.397 280.198 C 176.904 280.511,178.800 278.634,178.800 277.818 C 178.800 277.478,178.980 277.200,179.200 277.200 C 179.420 277.200,179.600 276.840,179.600 276.400 C 179.600 275.960,179.780 275.600,180.000 275.600 C 180.220 275.600,180.400 275.317,180.400 274.971 C 180.400 274.626,180.657 274.086,180.971 273.771 C 181.627 273.116,182.800 273.006,182.800 273.600 C 182.800 273.820,183.258 274.000,183.818 274.000 C 184.941 274.000,186.800 275.610,186.800 276.582 C 186.800 276.922,186.980 277.200,187.200 277.200 C 187.420 277.200,187.600 277.920,187.600 278.800 C 187.600 279.680,187.420 280.400,187.200 280.400 C 186.954 280.400,186.800 282.400,186.800 285.600 C 186.800 288.800,186.954 290.800,187.200 290.800 C 187.420 290.800,187.600 291.160,187.600 291.600 C 187.600 292.040,187.780 292.400,188.000 292.400 C 188.220 292.400,188.400 292.687,188.400 293.037 C 188.400 293.388,188.760 293.769,189.200 293.884 C 189.640 293.999,190.000 294.252,190.000 294.447 C 190.000 294.641,190.720 294.800,191.600 294.800 C 192.480 294.800,193.200 294.620,193.200 294.400 C 193.200 294.180,193.484 294.000,193.831 294.000 C 194.179 294.000,195.154 293.280,196.000 292.400 C 196.846 291.520,197.755 290.800,198.022 290.800 C 198.288 290.800,198.799 290.485,199.157 290.100 C 199.996 289.199,201.423 288.400,202.195 288.400 C 202.528 288.400,202.800 288.220,202.800 288.000 C 202.800 287.780,203.160 287.600,203.600 287.600 C 204.040 287.600,204.400 287.420,204.400 287.200 C 204.400 286.980,205.120 286.800,206.000 286.800 C 206.880 286.800,207.600 286.620,207.600 286.400 C 207.600 285.806,208.773 285.916,209.429 286.571 C 209.743 286.886,210.000 287.426,210.000 287.771 C 210.000 288.117,210.180 288.400,210.400 288.400 C 210.620 288.400,210.800 288.760,210.800 289.200 C 210.800 289.640,210.980 290.000,211.200 290.000 C 211.420 290.000,211.600 290.360,211.600 290.800 C 211.600 291.240,211.780 291.600,212.000 291.600 C 212.220 291.600,212.400 291.960,212.400 292.400 C 212.400 292.840,212.580 293.200,212.800 293.200 C 213.020 293.200,213.200 293.740,213.200 294.400 C 213.200 295.060,213.380 295.600,213.600 295.600 C 213.820 295.600,214.000 296.219,214.000 296.976 C 214.000 297.733,214.180 298.464,214.400 298.600 C 214.620 298.736,214.800 299.377,214.800 300.024 C 214.800 300.671,214.980 301.200,215.200 301.200 C 215.420 301.200,215.600 301.920,215.600 302.800 C 215.600 303.680,215.780 304.400,216.000 304.400 C 216.220 304.400,216.400 304.940,216.400 305.600 C 216.400 306.260,216.580 306.800,216.800 306.800 C 217.020 306.800,217.200 307.520,217.200 308.400 C 217.200 309.280,217.380 310.000,217.600 310.000 C 217.820 310.000,218.000 310.979,218.000 312.176 C 218.000 313.373,218.180 314.464,218.400 314.600 C 218.620 314.736,218.800 315.636,218.800 316.600 C 218.800 317.564,218.980 318.464,219.200 318.600 C 219.420 318.736,219.600 319.557,219.600 320.424 C 219.600 321.291,219.780 322.000,220.000 322.000 C 220.220 322.000,220.400 322.799,220.400 323.776 C 220.400 324.753,220.580 325.664,220.800 325.800 C 221.020 325.936,221.200 326.656,221.200 327.400 C 221.200 328.144,221.380 328.864,221.600 329.000 C 221.820 329.136,222.000 329.856,222.000 330.600 C 222.000 331.344,222.180 332.064,222.400 332.200 C 222.620 332.336,222.800 332.719,222.800 333.052 C 222.800 333.840,223.773 334.800,224.571 334.800 C 225.323 334.800,225.547 314.661,224.800 314.200 C 224.580 314.064,224.400 313.063,224.400 311.976 C 224.400 310.889,224.220 310.000,224.000 310.000 C 223.780 310.000,223.600 309.201,223.600 308.224 C 223.600 307.247,223.420 306.336,223.200 306.200 C 222.980 306.064,222.800 305.243,222.800 304.376 C 222.800 303.509,222.620 302.800,222.400 302.800 C 222.178 302.800,222.000 301.733,222.000 300.400 C 222.000 299.067,221.822 298.000,221.600 298.000 C 221.360 298.000,221.200 296.400,221.200 294.000 C 221.200 291.600,221.360 290.000,221.600 290.000 C 221.820 290.000,222.000 289.460,222.000 288.800 C 222.000 288.140,222.180 287.600,222.400 287.600 C 222.620 287.600,222.800 287.240,222.800 286.800 C 222.800 286.360,222.980 286.000,223.200 286.000 C 223.420 286.000,223.600 285.471,223.600 284.824 C 223.600 284.177,223.780 283.536,224.000 283.400 C 224.220 283.264,224.400 282.713,224.400 282.176 C 224.400 281.639,224.580 281.200,224.800 281.200 C 225.020 281.200,225.200 280.660,225.200 280.000 C 225.200 279.340,225.380 278.800,225.600 278.800 C 225.820 278.800,226.000 278.524,226.000 278.187 C 226.000 277.494,228.266 275.091,229.288 274.698 C 230.043 274.408,232.400 276.358,232.400 277.272 C 232.400 277.575,232.760 278.083,233.200 278.400 C 233.640 278.717,234.000 279.376,234.000 279.865 C 234.000 280.353,234.180 280.864,234.400 281.000 C 234.620 281.136,234.800 281.597,234.800 282.024 C 234.800 282.451,234.980 282.800,235.200 282.800 C 235.420 282.800,235.600 283.340,235.600 284.000 C 235.600 284.660,235.780 285.200,236.000 285.200 C 236.220 285.200,236.400 285.740,236.400 286.400 C 236.400 287.060,236.580 287.600,236.800 287.600 C 237.020 287.600,237.200 288.320,237.200 289.200 C 237.200 290.080,237.380 290.800,237.600 290.800 C 237.822 290.800,238.000 291.867,238.000 293.200 C 238.000 294.533,238.178 295.600,238.400 295.600 C 238.620 295.600,238.800 296.500,238.800 297.600 C 238.800 298.700,238.980 299.600,239.200 299.600 C 239.420 299.600,239.600 300.320,239.600 301.200 C 239.600 302.080,239.780 302.800,240.000 302.800 C 240.220 302.800,240.400 303.160,240.400 303.600 C 240.400 304.040,240.580 304.400,240.800 304.400 C 241.020 304.400,241.200 304.760,241.200 305.200 C 241.200 305.640,241.380 306.000,241.600 306.000 C 241.820 306.000,242.000 306.360,242.000 306.800 C 242.000 307.240,242.180 307.600,242.400 307.600 C 242.620 307.600,242.800 307.960,242.800 308.400 C 242.800 308.840,242.980 309.200,243.200 309.200 C 243.420 309.200,243.600 309.452,243.600 309.760 C 243.600 310.488,246.312 313.200,247.040 313.200 C 247.348 313.200,247.600 313.380,247.600 313.600 C 247.600 313.844,249.404 314.000,252.211 314.000 L 256.821 314.000 258.611 312.211 C 259.595 311.226,260.400 310.146,260.400 309.811 C 260.400 309.475,260.580 309.200,260.800 309.200 C 261.020 309.200,261.200 308.660,261.200 308.000 C 261.200 307.340,261.380 306.800,261.600 306.800 C 261.828 306.800,262.000 305.608,262.000 304.024 C 262.000 302.497,262.180 301.136,262.400 301.000 C 262.623 300.862,262.800 299.004,262.800 296.800 C 262.800 294.596,262.623 292.738,262.400 292.600 C 262.180 292.464,262.000 291.283,262.000 289.976 C 262.000 288.659,261.822 287.600,261.600 287.600 C 261.380 287.600,261.200 286.700,261.200 285.600 C 261.200 284.500,261.020 283.600,260.800 283.600 C 260.195 283.600,260.285 274.590,260.900 273.517 C 261.692 272.135,263.108 270.800,263.782 270.800 C 264.122 270.800,264.400 270.620,264.400 270.400 C 264.400 270.180,265.120 270.000,266.000 270.000 C 266.880 270.000,267.600 270.180,267.600 270.400 C 267.600 270.620,267.872 270.800,268.204 270.800 C 268.536 270.800,269.372 271.340,270.063 272.000 C 270.754 272.660,271.472 273.200,271.659 273.200 C 271.846 273.200,272.741 273.920,273.648 274.800 C 274.633 275.756,275.679 276.400,276.248 276.400 C 276.772 276.400,277.200 276.580,277.200 276.800 C 277.200 277.020,277.740 277.200,278.400 277.200 C 279.060 277.200,279.600 277.380,279.600 277.600 C 279.600 277.837,281.067 278.000,283.200 278.000 C 285.333 278.000,286.800 277.837,286.800 277.600 C 286.800 277.380,287.226 277.200,287.746 277.200 C 288.843 277.200,293.200 273.233,293.200 272.235 C 293.200 271.886,293.380 271.600,293.600 271.600 C 293.820 271.600,294.000 271.240,294.000 270.800 C 294.000 270.360,294.180 270.000,294.400 270.000 C 294.620 270.000,294.800 269.460,294.800 268.800 C 294.800 268.140,294.980 267.600,295.200 267.600 C 295.420 267.600,295.600 267.071,295.600 266.424 C 295.600 265.777,295.780 265.136,296.000 265.000 C 296.243 264.850,296.400 261.863,296.400 257.376 C 296.400 252.725,296.252 250.000,296.000 250.000 C 295.780 250.000,295.600 249.280,295.600 248.400 C 295.600 247.520,295.420 246.800,295.200 246.800 C 294.980 246.800,294.800 246.440,294.800 246.000 C 294.800 245.560,294.620 245.200,294.400 245.200 C 294.180 245.200,294.000 244.927,294.000 244.593 C 294.000 243.897,289.044 238.800,288.368 238.800 C 288.122 238.800,287.417 238.260,286.800 237.600 C 286.183 236.940,285.475 236.400,285.226 236.400 C 284.569 236.400,282.000 233.730,282.000 233.047 C 282.000 232.728,281.837 232.407,281.638 232.333 C 281.250 232.190,281.078 231.211,281.157 229.600 C 281.233 228.048,285.410 226.722,286.200 228.000 C 286.336 228.220,287.427 228.400,288.624 228.400 C 289.821 228.400,290.800 228.580,290.800 228.800 C 290.800 229.020,291.329 229.200,291.976 229.200 C 292.623 229.200,293.264 229.380,293.400 229.600 C 293.536 229.820,294.267 230.000,295.024 230.000 C 295.781 230.000,296.400 230.180,296.400 230.400 C 296.400 230.620,296.940 230.800,297.600 230.800 C 298.260 230.800,298.800 230.980,298.800 231.200 C 298.800 231.420,299.340 231.600,300.000 231.600 C 300.660 231.600,301.200 231.780,301.200 232.000 C 301.200 232.220,301.740 232.400,302.400 232.400 C 303.060 232.400,303.600 232.580,303.600 232.800 C 303.600 233.020,304.140 233.200,304.800 233.200 C 305.460 233.200,306.000 233.380,306.000 233.600 C 306.000 233.820,306.349 234.000,306.776 234.000 C 307.203 234.000,307.664 234.180,307.800 234.400 C 307.936 234.620,308.487 234.800,309.024 234.800 C 309.561 234.800,310.000 234.980,310.000 235.200 C 310.000 235.420,310.540 235.600,311.200 235.600 C 311.860 235.600,312.400 235.780,312.400 236.000 C 312.400 236.220,312.940 236.400,313.600 236.400 C 314.260 236.400,314.800 236.580,314.800 236.800 C 314.800 237.020,315.340 237.200,316.000 237.200 C 316.660 237.200,317.200 237.380,317.200 237.600 C 317.200 237.820,317.560 238.000,318.000 238.000 C 318.440 238.000,318.800 238.180,318.800 238.400 C 318.800 238.620,319.160 238.800,319.600 238.800 C 320.040 238.800,320.400 238.980,320.400 239.200 C 320.400 239.420,320.929 239.600,321.576 239.600 C 322.223 239.600,322.864 239.780,323.000 240.000 C 323.136 240.220,323.687 240.400,324.224 240.400 C 324.761 240.400,325.200 240.580,325.200 240.800 C 325.200 241.020,325.740 241.200,326.400 241.200 C 327.060 241.200,327.600 241.380,327.600 241.600 C 327.600 241.820,327.960 242.000,328.400 242.000 C 328.840 242.000,329.200 242.180,329.200 242.400 C 329.200 242.620,329.549 242.800,329.976 242.800 C 330.403 242.800,330.864 242.980,331.000 243.200 C 331.136 243.420,331.687 243.600,332.224 243.600 C 332.761 243.600,333.200 243.780,333.200 244.000 C 333.200 244.220,333.740 244.400,334.400 244.400 C 335.060 244.400,335.600 244.580,335.600 244.800 C 335.600 245.036,337.010 245.200,339.029 245.200 C 342.557 245.200,343.600 244.796,343.600 243.429 C 343.600 243.083,343.780 242.800,344.000 242.800 C 344.245 242.800,344.400 240.875,344.400 237.824 C 344.400 234.937,344.232 232.743,344.000 232.600 C 343.780 232.464,343.600 231.643,343.600 230.776 C 343.600 229.909,343.420 229.200,343.200 229.200 C 342.980 229.200,342.800 228.840,342.800 228.400 C 342.800 227.960,342.620 227.600,342.400 227.600 C 342.180 227.600,342.000 227.327,342.000 226.994 C 342.000 226.203,336.197 220.400,335.406 220.400 C 335.073 220.400,334.800 220.220,334.800 220.000 C 334.800 219.780,334.440 219.600,334.000 219.600 C 333.560 219.600,333.200 219.420,333.200 219.200 C 333.200 218.980,332.840 218.800,332.400 218.800 C 331.960 218.800,331.600 218.620,331.600 218.400 C 331.600 218.180,331.240 218.000,330.800 218.000 C 330.360 218.000,330.000 217.820,330.000 217.600 C 330.000 217.380,329.640 217.200,329.200 217.200 C 328.760 217.200,328.400 217.020,328.400 216.800 C 328.400 216.580,327.860 216.400,327.200 216.400 C 326.540 216.400,326.000 216.220,326.000 216.000 C 326.000 215.780,325.280 215.600,324.400 215.600 C 323.520 215.600,322.800 215.420,322.800 215.200 C 322.800 214.967,321.475 214.800,319.624 214.800 C 317.877 214.800,316.336 214.620,316.200 214.400 C 316.064 214.180,314.534 214.000,312.800 214.000 C 311.066 214.000,309.536 214.180,309.400 214.400 C 309.261 214.625,307.337 214.800,305.000 214.800 C 302.663 214.800,300.739 214.975,300.600 215.200 C 300.464 215.420,298.923 215.600,297.176 215.600 C 295.325 215.600,294.000 215.767,294.000 216.000 C 294.000 216.220,293.111 216.400,292.024 216.400 C 290.937 216.400,289.936 216.220,289.800 216.000 C 289.664 215.780,288.753 215.600,287.776 215.600 C 286.799 215.600,286.000 215.420,286.000 215.200 C 286.000 214.980,286.799 214.800,287.776 214.800 C 288.753 214.800,289.664 214.620,289.800 214.400 C 289.939 214.175,291.863 214.000,294.200 214.000 C 296.537 214.000,298.461 213.825,298.600 213.600 C 298.736 213.380,299.917 213.200,301.224 213.200 C 302.541 213.200,303.600 213.022,303.600 212.800 C 303.600 212.578,304.667 212.400,306.000 212.400 C 307.333 212.400,308.400 212.222,308.400 212.000 C 308.400 211.778,309.467 211.600,310.800 211.600 C 312.133 211.600,313.200 211.422,313.200 211.200 C 313.200 210.980,313.999 210.800,314.976 210.800 C 315.953 210.800,316.864 210.620,317.000 210.400 C 317.136 210.180,317.856 210.000,318.600 210.000 C 319.344 210.000,320.064 209.820,320.200 209.600 C 320.336 209.380,320.797 209.200,321.224 209.200 C 321.651 209.200,322.000 209.020,322.000 208.800 C 322.000 208.580,322.360 208.400,322.800 208.400 C 323.240 208.400,323.600 208.220,323.600 208.000 C 323.600 207.780,323.960 207.600,324.400 207.600 C 324.840 207.600,325.200 207.464,325.200 207.298 C 325.200 207.131,325.711 206.769,326.335 206.493 C 326.959 206.217,327.723 205.498,328.032 204.895 C 328.341 204.293,328.911 203.509,329.297 203.153 C 329.684 202.797,330.000 202.032,330.000 201.453 C 330.000 200.874,330.180 200.400,330.400 200.400 C 330.629 200.400,330.800 199.200,330.800 197.600 C 330.800 196.000,330.629 194.800,330.400 194.800 C 330.180 194.800,330.000 194.260,330.000 193.600 C 330.000 192.940,329.820 192.400,329.600 192.400 C 329.380 192.400,329.200 192.040,329.200 191.600 C 329.200 191.160,329.020 190.800,328.800 190.800 C 328.580 190.800,328.400 190.524,328.400 190.187 C 328.400 189.259,325.616 186.624,325.139 187.101 C 324.096 188.144,321.048 187.132,319.236 185.139 C 317.147 182.844,316.800 182.758,316.800 184.538 C 316.800 186.390,315.777 187.200,313.440 187.200 C 311.079 187.200,310.404 186.565,310.387 184.329 C 310.380 183.378,310.135 182.285,309.843 181.900 C 309.277 181.154,306.800 180.910,306.800 181.600 C 306.800 181.820,306.288 182.000,305.662 182.000 C 304.570 182.000,303.200 183.033,303.200 183.857 C 303.200 184.792,299.763 187.200,298.429 187.200 C 297.999 187.200,297.536 187.380,297.400 187.600 C 297.264 187.820,296.634 188.000,296.000 188.000 C 295.366 188.000,294.736 187.820,294.600 187.600 C 294.464 187.380,293.947 187.200,293.452 187.200 C 292.956 187.200,292.164 186.840,291.692 186.400 C 291.220 185.960,290.659 185.600,290.446 185.600 C 290.233 185.600,289.717 185.167,289.301 184.637 C 287.922 182.885,282.437 182.991,280.272 184.812 C 278.319 186.455,276.980 187.200,275.978 187.200 C 275.576 187.200,275.136 187.380,275.000 187.600 C 274.864 187.820,274.234 188.000,273.600 188.000 C 272.966 188.000,272.336 187.820,272.200 187.600 C 272.064 187.380,271.609 187.200,271.189 187.200 C 266.682 187.200,262.235 179.151,264.500 175.095 C 265.279 173.700,267.706 171.200,268.281 171.200 C 268.567 171.200,268.800 171.020,268.800 170.800 C 268.800 170.580,269.115 170.394,269.500 170.387 C 270.365 170.372,271.600 169.471,271.600 168.856 C 271.600 168.605,271.780 168.400,272.000 168.400 C 272.220 168.400,272.400 168.040,272.400 167.600 C 272.400 167.100,272.667 166.800,273.112 166.800 C 273.503 166.800,274.083 166.440,274.400 166.000 C 274.717 165.560,275.180 165.200,275.429 165.200 C 275.678 165.200,276.446 164.660,277.137 164.000 C 277.828 163.340,278.583 162.800,278.815 162.800 C 279.448 162.800,281.200 160.922,281.200 160.242 C 281.200 159.915,281.380 159.536,281.600 159.400 C 282.234 159.008,282.088 158.653,280.646 157.078 C 279.263 155.568,275.689 154.885,275.000 156.000 C 274.864 156.220,274.324 156.400,273.800 156.400 C 273.276 156.400,272.736 156.580,272.600 156.800 C 272.464 157.020,272.003 157.200,271.576 157.200 C 271.149 157.200,270.800 157.380,270.800 157.600 C 270.800 157.820,270.440 158.000,270.000 158.000 C 269.560 158.000,269.200 158.180,269.200 158.400 C 269.200 158.620,268.660 158.800,268.000 158.800 C 267.340 158.800,266.800 158.980,266.800 159.200 C 266.800 159.420,266.001 159.600,265.024 159.600 C 264.047 159.600,263.136 159.780,263.000 160.000 C 262.864 160.220,262.223 160.400,261.576 160.400 C 260.929 160.400,260.400 160.580,260.400 160.800 C 260.400 161.020,259.500 161.200,258.400 161.200 C 257.300 161.200,256.400 161.380,256.400 161.600 C 256.400 161.820,256.040 162.000,255.600 162.000 C 254.719 162.000,254.368 158.314,255.200 157.800 C 255.420 157.664,255.600 157.113,255.600 156.576 C 255.600 156.039,255.780 155.600,256.000 155.600 C 256.220 155.600,256.400 155.335,256.400 155.012 C 256.400 154.689,256.760 153.783,257.200 153.000 C 257.640 152.217,258.000 151.310,258.000 150.984 C 258.000 150.659,258.540 149.828,259.200 149.137 C 259.860 148.446,260.400 147.726,260.400 147.537 C 260.400 147.348,260.940 146.628,261.600 145.937 C 262.260 145.246,262.800 144.528,262.800 144.341 C 262.800 144.154,263.520 143.259,264.400 142.352 C 265.280 141.445,266.000 140.543,266.000 140.346 C 266.000 139.826,272.707 133.200,273.234 133.200 C 273.479 133.200,274.156 132.705,274.740 132.100 C 275.323 131.495,276.295 130.745,276.900 130.432 C 277.505 130.120,278.000 129.715,278.000 129.532 C 278.000 129.350,278.360 129.200,278.800 129.200 C 279.240 129.200,279.600 129.020,279.600 128.800 C 279.600 128.580,279.920 128.400,280.312 128.400 C 280.703 128.400,281.283 128.040,281.600 127.600 C 281.917 127.160,282.497 126.800,282.888 126.800 C 283.280 126.800,283.600 126.620,283.600 126.400 C 283.600 126.180,283.960 126.000,284.400 126.000 C 284.840 126.000,285.200 125.820,285.200 125.600 C 285.200 125.380,285.740 125.200,286.400 125.200 C 287.060 125.200,287.600 125.020,287.600 124.800 C 287.600 124.580,288.140 124.400,288.800 124.400 C 289.460 124.400,290.000 124.220,290.000 124.000 C 290.000 123.780,290.540 123.600,291.200 123.600 C 291.860 123.600,292.400 123.420,292.400 123.200 C 292.400 122.980,292.940 122.800,293.600 122.800 C 294.260 122.800,294.800 122.620,294.800 122.400 C 294.800 122.180,295.700 122.000,296.800 122.000 C 297.900 122.000,298.800 121.820,298.800 121.600 C 298.800 121.380,299.340 121.200,300.000 121.200 C 300.660 121.200,301.200 121.020,301.200 120.800 C 301.200 120.580,301.520 120.400,301.912 120.400 C 302.303 120.400,302.883 120.040,303.200 119.600 C 303.517 119.160,304.031 118.800,304.342 118.800 C 304.653 118.800,305.333 118.305,305.853 117.700 C 307.825 115.407,306.677 110.000,304.218 110.000 C 303.878 110.000,303.600 109.820,303.600 109.600 C 303.600 109.380,303.060 109.200,302.400 109.200 C 301.740 109.200,301.200 109.020,301.200 108.800 C 301.200 108.571,300.000 108.400,298.400 108.400 C 296.800 108.400,295.600 108.571,295.600 108.800 M123.300 124.216 C 122.059 125.515,121.505 127.600,122.400 127.600 C 122.620 127.600,122.800 127.883,122.800 128.229 C 122.800 128.955,123.737 130.000,124.388 130.000 C 124.633 130.000,125.220 130.360,125.692 130.800 C 126.164 131.240,126.967 131.600,127.475 131.600 C 127.984 131.600,128.400 131.780,128.400 132.000 C 128.400 132.220,129.300 132.400,130.400 132.400 C 131.500 132.400,132.400 132.580,132.400 132.800 C 132.400 133.407,134.379 133.278,135.029 132.629 C 135.684 131.973,135.794 130.800,135.200 130.800 C 134.980 130.800,134.800 130.440,134.800 130.000 C 134.800 129.560,134.620 129.200,134.400 129.200 C 134.180 129.200,134.000 128.927,134.000 128.593 C 134.000 128.259,132.833 126.819,131.407 125.393 C 128.130 122.115,125.650 121.755,123.300 124.216 M169.200 124.800 C 169.200 125.020,168.922 125.200,168.582 125.200 C 168.242 125.200,167.522 125.642,166.982 126.182 C 164.921 128.243,166.407 131.600,169.382 131.600 C 170.533 131.600,170.800 131.450,170.800 130.800 C 170.800 130.360,170.980 130.000,171.200 130.000 C 171.429 130.000,171.600 128.800,171.600 127.200 L 171.600 124.400 170.400 124.400 C 169.740 124.400,169.200 124.580,169.200 124.800 M155.700 128.599 C 155.205 129.134,154.800 129.848,154.800 130.186 C 154.800 130.524,154.620 130.800,154.400 130.800 C 154.180 130.800,154.000 131.438,154.000 132.218 C 154.000 134.148,155.458 135.600,157.396 135.600 L 158.829 135.600 158.714 131.700 C 158.585 127.296,157.725 126.411,155.700 128.599 M310.800 135.200 C 310.800 135.420,310.440 135.600,310.000 135.600 C 309.467 135.600,309.200 135.867,309.200 136.400 C 309.200 136.840,309.020 137.200,308.800 137.200 C 308.165 137.200,308.314 141.571,308.971 142.229 C 309.629 142.886,314.000 143.035,314.000 142.400 C 314.000 142.180,314.257 142.000,314.571 142.000 C 314.885 142.000,315.425 141.432,315.771 140.739 C 316.475 139.326,316.613 137.200,316.000 137.200 C 315.780 137.200,315.600 136.917,315.600 136.571 C 315.600 135.446,314.516 134.800,312.629 134.800 C 311.623 134.800,310.800 134.980,310.800 135.200 M78.800 146.400 C 78.800 146.620,78.001 146.800,77.024 146.800 C 76.047 146.800,75.136 146.980,75.000 147.200 C 74.864 147.420,74.403 147.600,73.976 147.600 C 73.549 147.600,73.200 147.780,73.200 148.000 C 73.200 148.220,72.927 148.400,72.593 148.400 C 71.815 148.400,66.800 153.395,66.800 154.169 C 66.800 154.490,66.620 154.864,66.400 155.000 C 66.180 155.136,66.000 155.687,66.000 156.224 C 66.000 156.761,65.820 157.200,65.600 157.200 C 65.358 157.200,65.200 158.933,65.200 161.600 C 65.200 164.267,65.358 166.000,65.600 166.000 C 65.820 166.000,66.000 166.540,66.000 167.200 C 66.000 167.860,66.180 168.400,66.400 168.400 C 66.620 168.400,66.800 168.760,66.800 169.200 C 66.800 169.640,66.980 170.000,67.200 170.000 C 67.420 170.000,67.600 170.272,67.600 170.605 C 67.600 171.341,74.979 178.800,75.707 178.800 C 75.991 178.800,76.483 179.160,76.800 179.600 C 77.117 180.040,77.657 180.400,78.000 180.400 C 78.343 180.400,78.883 180.760,79.200 181.200 C 79.517 181.640,80.097 182.000,80.488 182.000 C 80.880 182.000,81.200 182.180,81.200 182.400 C 81.200 182.620,81.434 182.800,81.720 182.800 C 82.456 182.800,84.393 183.741,84.397 184.100 C 84.399 184.265,84.749 184.400,85.176 184.400 C 85.603 184.400,86.064 184.580,86.200 184.800 C 86.336 185.020,86.887 185.200,87.424 185.200 C 87.961 185.200,88.400 185.380,88.400 185.600 C 88.400 185.820,88.940 186.000,89.600 186.000 C 90.260 186.000,90.800 186.180,90.800 186.400 C 90.800 186.620,91.520 186.800,92.400 186.800 C 93.280 186.800,94.000 186.980,94.000 187.200 C 94.000 187.429,95.200 187.600,96.800 187.600 C 98.400 187.600,99.600 187.771,99.600 188.000 C 99.600 188.994,107.964 188.466,109.113 187.400 C 109.707 186.850,110.490 186.400,110.855 186.400 C 111.220 186.400,112.545 185.860,113.800 185.200 C 115.055 184.540,116.412 184.000,116.817 184.000 C 117.222 184.000,117.664 183.820,117.800 183.600 C 117.936 183.380,118.476 183.200,119.000 183.200 C 119.524 183.200,120.064 183.020,120.200 182.800 C 120.336 182.580,120.876 182.400,121.400 182.400 C 121.924 182.400,122.464 182.220,122.600 182.000 C 122.736 181.780,123.636 181.600,124.600 181.600 C 125.564 181.600,126.464 181.420,126.600 181.200 C 126.752 180.954,130.063 180.800,135.200 180.800 C 140.337 180.800,143.648 180.954,143.800 181.200 C 143.936 181.420,144.991 181.600,146.144 181.600 C 147.297 181.600,148.455 181.815,148.719 182.079 C 149.713 183.073,150.454 181.258,150.219 178.400 C 150.102 176.970,150.004 173.325,150.003 170.300 C 150.001 166.902,149.847 164.800,149.600 164.800 C 149.352 164.800,149.200 167.000,149.200 170.600 L 149.200 176.400 146.400 176.400 C 144.800 176.400,143.600 176.571,143.600 176.800 C 143.600 177.022,142.541 177.200,141.224 177.200 C 139.917 177.200,138.736 177.020,138.600 176.800 C 138.464 176.580,136.833 176.400,134.976 176.400 C 132.992 176.400,131.600 176.235,131.600 176.000 C 131.600 175.780,130.700 175.600,129.600 175.600 C 128.500 175.600,127.600 175.420,127.600 175.200 C 127.600 174.980,127.060 174.800,126.400 174.800 C 125.740 174.800,125.200 174.620,125.200 174.400 C 125.200 174.180,124.840 174.000,124.400 174.000 C 123.960 174.000,123.600 173.820,123.600 173.600 C 123.600 173.380,123.280 173.200,122.888 173.200 C 122.497 173.200,121.917 172.840,121.600 172.400 C 121.283 171.960,120.789 171.600,120.503 171.600 C 119.927 171.600,115.600 167.424,115.600 166.868 C 115.600 166.676,115.060 165.954,114.400 165.263 C 113.740 164.572,113.200 163.852,113.200 163.663 C 113.200 163.474,112.660 162.754,112.000 162.063 C 111.340 161.372,110.800 160.608,110.800 160.364 C 110.800 160.120,110.260 159.417,109.600 158.800 C 108.940 158.183,108.400 157.502,108.400 157.286 C 108.400 156.676,103.329 151.600,102.719 151.600 C 102.421 151.600,101.917 151.240,101.600 150.800 C 101.283 150.360,100.703 150.000,100.312 150.000 C 99.920 150.000,99.600 149.820,99.600 149.600 C 99.600 149.380,99.240 149.200,98.800 149.200 C 98.360 149.200,98.000 149.020,98.000 148.800 C 98.000 148.580,97.640 148.400,97.200 148.400 C 96.760 148.400,96.400 148.220,96.400 148.000 C 96.400 147.780,95.860 147.600,95.200 147.600 C 94.540 147.600,94.000 147.420,94.000 147.200 C 94.000 146.980,93.111 146.800,92.024 146.800 C 90.937 146.800,89.936 146.620,89.800 146.400 C 89.655 146.165,87.329 146.000,84.176 146.000 C 80.859 146.000,78.800 146.153,78.800 146.400 M146.000 146.353 C 146.000 146.548,145.640 146.801,145.200 146.916 C 144.587 147.076,144.400 147.462,144.400 148.563 C 144.400 149.353,144.220 150.000,144.000 150.000 C 143.780 150.000,143.600 150.720,143.600 151.600 C 143.600 152.480,143.780 153.200,144.000 153.200 C 144.220 153.200,144.400 154.100,144.400 155.200 C 144.400 156.300,144.537 157.200,144.705 157.200 C 144.873 157.200,145.188 157.605,145.405 158.100 C 145.622 158.595,146.205 159.178,146.700 159.395 C 147.195 159.612,147.600 159.927,147.600 160.095 C 147.600 160.263,147.870 160.400,148.200 160.400 C 148.711 160.400,148.800 159.333,148.800 153.200 L 148.800 146.000 147.400 146.000 C 146.630 146.000,146.000 146.159,146.000 146.353 M308.100 147.398 C 307.271 148.340,307.404 158.000,308.246 158.000 C 308.993 158.000,311.600 155.297,311.600 154.522 C 311.600 154.235,311.747 154.000,311.926 154.000 C 313.289 154.000,314.540 148.483,313.429 147.371 C 312.667 146.609,308.777 146.629,308.100 147.398 M283.800 168.800 C 283.664 169.020,282.496 169.200,281.203 169.200 C 278.010 169.200,277.639 170.132,279.948 172.350 C 282.019 174.340,283.200 176.469,283.200 178.212 C 283.200 179.179,283.382 179.600,283.800 179.600 C 284.130 179.600,284.400 179.420,284.400 179.200 C 284.400 178.980,284.895 178.799,285.500 178.797 C 287.185 178.794,288.000 177.020,288.000 173.355 C 288.000 171.075,288.141 170.321,288.600 170.145 C 289.729 169.711,289.201 169.200,287.624 169.200 C 286.757 169.200,285.936 169.020,285.800 168.800 C 285.664 168.580,285.214 168.400,284.800 168.400 C 284.386 168.400,283.936 168.580,283.800 168.800 M219.800 170.000 C 219.936 170.220,220.475 170.400,220.997 170.400 C 224.616 170.400,227.035 177.179,224.400 179.937 C 222.841 181.568,222.921 182.305,224.900 184.555 C 226.274 186.117,225.293 187.200,222.503 187.200 C 220.648 187.200,218.400 185.803,218.400 184.650 C 218.400 184.115,217.282 183.200,216.629 183.200 C 216.174 183.200,216.000 183.597,216.000 184.629 C 216.000 186.561,215.245 187.200,212.960 187.200 C 209.686 187.200,209.600 186.987,209.600 178.860 L 209.600 171.844 210.675 170.722 C 211.807 169.540,219.156 168.959,219.800 170.000 M236.478 170.675 L 237.600 171.750 237.600 178.743 C 237.600 187.055,237.540 187.200,234.070 187.200 C 230.440 187.200,230.400 187.109,230.400 178.860 L 230.400 171.844 231.475 170.722 C 232.925 169.208,234.927 169.189,236.478 170.675 M256.115 170.537 C 259.772 172.388,259.983 173.074,257.606 175.394 L 256.012 176.951 255.080 176.075 C 254.022 175.081,250.143 174.817,249.280 175.680 C 247.906 177.054,248.919 181.600,250.600 181.600 C 251.062 181.600,251.648 181.808,251.903 182.063 C 252.644 182.804,253.600 181.711,253.600 180.122 C 253.600 178.304,254.381 177.600,256.400 177.600 C 258.765 177.600,259.200 178.220,259.200 181.590 C 259.200 184.553,258.218 186.400,256.642 186.400 C 256.315 186.400,255.936 186.580,255.800 186.800 C 255.664 187.020,255.124 187.200,254.600 187.200 C 254.076 187.200,253.536 187.380,253.400 187.600 C 253.264 187.820,252.634 188.000,252.000 188.000 C 251.366 188.000,250.736 187.820,250.600 187.600 C 250.464 187.380,250.009 187.200,249.589 187.200 C 245.082 187.200,240.635 179.151,242.900 175.095 C 243.679 173.700,246.106 171.200,246.681 171.200 C 246.967 171.200,247.200 171.020,247.200 170.800 C 247.200 170.580,247.549 170.400,247.976 170.400 C 248.403 170.400,248.864 170.220,249.000 170.000 C 249.498 169.193,254.156 169.545,256.115 170.537 M342.800 171.200 C 342.800 171.420,342.001 171.600,341.024 171.600 C 340.047 171.600,339.136 171.780,339.000 172.000 C 338.864 172.220,338.223 172.400,337.576 172.400 C 336.929 172.400,336.400 172.580,336.400 172.800 C 336.400 173.020,335.961 173.200,335.424 173.200 C 334.887 173.200,334.336 173.380,334.200 173.600 C 334.064 173.820,333.603 174.000,333.176 174.000 C 332.737 174.000,332.400 174.273,332.400 174.629 C 332.400 175.573,333.414 176.400,334.571 176.400 C 335.137 176.400,335.600 176.580,335.600 176.800 C 335.600 177.028,336.792 177.200,338.376 177.200 C 339.903 177.200,341.264 177.380,341.400 177.600 C 341.942 178.476,352.400 178.096,352.400 177.200 C 352.400 176.760,352.580 176.400,352.800 176.400 C 353.020 176.400,353.200 176.040,353.200 175.600 C 353.200 175.160,353.020 174.800,352.800 174.800 C 352.580 174.800,352.400 174.337,352.400 173.771 C 352.400 172.625,351.575 171.600,350.652 171.600 C 350.319 171.600,349.936 171.420,349.800 171.200 C 349.664 170.980,348.033 170.800,346.176 170.800 C 344.192 170.800,342.800 170.965,342.800 171.200 M216.000 176.400 C 216.000 177.533,216.089 177.600,217.600 177.600 C 219.111 177.600,219.200 177.533,219.200 176.400 C 219.200 175.267,219.111 175.200,217.600 175.200 C 216.089 175.200,216.000 175.267,216.000 176.400 M270.880 175.820 C 269.149 177.782,271.932 183.828,273.737 182.023 C 273.969 181.791,274.529 181.599,274.980 181.597 C 276.788 181.590,277.443 177.544,275.874 176.070 C 274.768 175.030,271.712 174.877,270.880 175.820 M277.585 190.732 C 282.990 190.715,283.407 190.769,284.046 191.557 C 284.813 192.505,285.608 192.632,286.320 191.920 C 286.693 191.547,286.800 191.547,286.800 191.920 C 286.800 192.184,287.261 192.400,287.824 192.400 C 288.404 192.400,288.740 192.573,288.600 192.800 C 288.464 193.020,286.758 193.200,284.810 193.200 C 282.809 193.200,281.209 193.374,281.133 193.599 C 281.060 193.819,280.227 194.028,279.283 194.065 C 278.338 194.102,277.473 194.283,277.359 194.466 C 277.246 194.650,276.803 194.800,276.376 194.800 C 275.867 194.800,275.600 195.075,275.600 195.600 C 275.600 196.133,275.333 196.400,274.800 196.400 C 274.360 196.400,274.000 196.580,274.000 196.800 C 274.000 197.354,271.864 197.304,271.297 196.737 C 270.951 196.391,270.695 196.389,270.288 196.727 C 269.988 196.976,268.765 197.209,267.571 197.245 C 266.377 197.280,265.209 197.459,264.975 197.641 C 264.742 197.824,260.746 197.996,256.096 198.024 C 251.446 198.053,247.587 198.236,247.521 198.431 C 247.342 198.957,228.650 198.949,228.474 198.423 C 228.397 198.190,227.808 198.000,227.167 198.000 C 226.525 198.000,226.000 197.820,226.000 197.600 C 226.000 197.038,223.348 197.101,222.413 197.685 C 221.289 198.387,220.917 197.740,221.936 196.856 C 222.411 196.443,222.800 195.812,222.800 195.453 C 222.800 195.027,223.140 194.800,223.776 194.800 C 224.313 194.800,224.864 194.620,225.000 194.400 C 225.143 194.168,227.317 194.000,230.162 194.000 C 234.568 194.000,235.151 193.917,235.800 193.200 C 236.198 192.760,236.784 192.400,237.102 192.400 C 237.419 192.400,238.181 191.862,238.796 191.205 L 239.912 190.010 255.256 189.905 C 266.625 189.827,270.756 189.923,271.203 190.275 C 271.608 190.593,273.709 190.743,277.585 190.732 M263.778 195.235 C 263.366 195.902,264.293 196.667,264.845 196.115 C 265.307 195.653,265.018 194.800,264.400 194.800 C 264.206 194.800,263.926 194.996,263.778 195.235 M226.000 200.001 C 226.000 200.245,227.638 200.388,230.196 200.368 C 233.439 200.342,234.528 200.471,234.996 200.938 C 235.753 201.696,235.782 202.800,235.044 202.800 C 234.739 202.800,234.514 202.485,234.544 202.100 C 234.575 201.715,234.330 201.400,234.000 201.400 C 233.670 201.400,233.425 201.715,233.456 202.100 C 233.502 202.687,233.163 202.800,231.356 202.800 C 230.170 202.800,229.200 202.980,229.200 203.200 C 229.200 203.420,228.660 203.600,228.000 203.600 C 227.340 203.600,226.800 203.420,226.800 203.200 C 226.800 202.980,226.080 202.800,225.200 202.800 C 223.867 202.800,223.600 202.667,223.600 202.000 C 223.600 201.560,223.420 201.200,223.200 201.200 C 222.980 201.200,222.800 201.020,222.800 200.800 C 222.800 200.580,223.239 200.400,223.776 200.400 C 224.313 200.400,224.864 200.220,225.000 200.000 C 225.320 199.482,226.000 199.483,226.000 200.001 M238.800 200.800 C 238.800 201.020,238.620 201.200,238.400 201.200 C 238.180 201.200,238.000 201.560,238.000 202.000 C 238.000 202.440,237.820 202.800,237.600 202.800 C 237.380 202.800,237.200 202.260,237.200 201.600 C 237.200 200.667,237.378 200.400,238.000 200.400 C 238.440 200.400,238.800 200.580,238.800 200.800 M222.800 204.800 C 222.800 205.020,222.440 205.200,222.000 205.200 C 221.560 205.200,221.200 205.020,221.200 204.800 C 221.200 204.580,221.560 204.400,222.000 204.400 C 222.440 204.400,222.800 204.580,222.800 204.800 M147.600 208.971 C 147.600 209.537,147.420 210.000,147.200 210.000 C 146.980 210.000,146.800 210.283,146.800 210.629 C 146.800 211.605,144.694 213.200,143.405 213.200 C 143.072 213.200,142.800 213.380,142.800 213.600 C 142.800 213.842,141.067 214.000,138.400 214.000 C 135.733 214.000,134.000 213.842,134.000 213.600 C 134.000 213.378,132.933 213.200,131.600 213.200 C 130.267 213.200,129.200 213.022,129.200 212.800 C 129.200 212.580,128.311 212.400,127.224 212.400 C 126.137 212.400,125.136 212.220,125.000 212.000 C 124.381 210.998,114.209 211.526,113.188 212.612 C 112.354 213.500,112.023 213.592,110.494 213.363 C 108.941 213.130,108.727 213.195,108.529 213.951 C 108.407 214.418,108.148 214.800,107.953 214.800 C 107.759 214.800,107.600 215.160,107.600 215.600 C 107.600 216.040,107.420 216.400,107.200 216.400 C 106.963 216.400,106.800 217.867,106.800 220.000 C 106.800 222.133,106.963 223.600,107.200 223.600 C 107.420 223.600,107.600 224.015,107.600 224.522 C 107.600 225.604,110.018 228.400,110.954 228.400 C 111.309 228.400,111.600 228.605,111.600 228.856 C 111.600 229.557,115.231 228.994,116.954 228.026 C 117.763 227.572,118.768 227.200,119.189 227.200 C 119.609 227.200,120.064 227.020,120.200 226.800 C 120.336 226.580,120.876 226.400,121.400 226.400 C 121.924 226.400,122.464 226.220,122.600 226.000 C 122.736 225.780,123.276 225.600,123.800 225.600 C 124.324 225.600,124.864 225.420,125.000 225.200 C 125.136 224.980,126.036 224.800,127.000 224.800 C 127.964 224.800,128.864 224.620,129.000 224.400 C 129.136 224.180,129.676 224.000,130.200 224.000 C 130.724 224.000,131.264 223.820,131.400 223.600 C 131.536 223.380,132.436 223.200,133.400 223.200 C 134.364 223.200,135.264 223.020,135.400 222.800 C 135.536 222.580,136.616 222.400,137.800 222.400 C 138.984 222.400,140.064 222.220,140.200 222.000 C 140.336 221.780,141.391 221.600,142.544 221.600 C 143.697 221.600,144.811 221.430,145.020 221.222 C 145.229 221.014,146.480 220.789,147.800 220.722 L 150.200 220.600 150.306 215.800 C 150.393 211.861,150.285 210.749,149.706 209.601 C 148.823 207.851,147.600 207.485,147.600 208.971 M77.400 210.400 C 77.264 210.620,76.083 210.800,74.776 210.800 C 73.459 210.800,72.400 210.978,72.400 211.200 C 72.400 211.420,72.117 211.600,71.771 211.600 C 70.834 211.600,70.000 212.611,70.000 213.748 C 70.000 214.301,69.820 214.864,69.600 215.000 C 68.643 215.592,70.623 218.000,72.067 218.000 C 72.602 218.000,73.256 218.216,73.520 218.480 C 73.893 218.853,74.107 218.853,74.480 218.480 C 74.744 218.216,75.824 218.000,76.880 218.000 C 77.936 218.000,78.800 217.820,78.800 217.600 C 78.800 217.380,79.340 217.200,80.000 217.200 C 80.660 217.200,81.200 217.020,81.200 216.800 C 81.200 216.580,81.639 216.400,82.176 216.400 C 82.713 216.400,83.264 216.220,83.400 216.000 C 83.536 215.780,83.997 215.600,84.424 215.600 C 84.851 215.600,85.200 215.420,85.200 215.200 C 85.200 214.980,85.478 214.800,85.818 214.800 C 86.790 214.800,88.400 212.941,88.400 211.818 C 88.400 210.803,88.389 210.800,84.824 210.800 C 82.857 210.800,81.136 210.620,81.000 210.400 C 80.864 210.180,80.054 210.000,79.200 210.000 C 78.346 210.000,77.536 210.180,77.400 210.400 M56.400 228.000 C 56.400 228.220,55.680 228.400,54.800 228.400 C 53.920 228.400,53.200 228.580,53.200 228.800 C 53.200 229.020,52.926 229.200,52.591 229.200 C 51.845 229.200,47.600 233.377,47.600 234.111 C 47.600 234.402,47.384 234.856,47.120 235.120 C 46.747 235.493,46.747 235.707,47.120 236.080 C 47.384 236.344,47.600 236.802,47.600 237.098 C 47.600 238.003,49.503 239.600,50.582 239.600 C 51.142 239.600,51.600 239.780,51.600 240.000 C 51.600 240.249,53.867 240.400,57.600 240.400 C 61.333 240.400,63.600 240.249,63.600 240.000 C 63.600 239.780,64.140 239.600,64.800 239.600 C 65.460 239.600,66.000 239.420,66.000 239.200 C 66.000 238.980,66.360 238.800,66.800 238.800 C 67.240 238.800,67.600 238.620,67.600 238.400 C 67.600 238.180,67.960 238.000,68.400 238.000 C 68.840 238.000,69.200 237.820,69.200 237.600 C 69.200 237.380,69.560 237.200,70.000 237.200 C 70.440 237.200,70.800 237.020,70.800 236.800 C 70.800 236.580,71.419 236.400,72.176 236.400 C 72.933 236.400,73.664 236.220,73.800 236.000 C 73.936 235.780,74.757 235.600,75.624 235.600 C 76.491 235.600,77.200 235.420,77.200 235.200 C 77.200 234.980,77.920 234.800,78.800 234.800 C 79.680 234.800,80.400 234.620,80.400 234.400 C 80.400 234.180,81.120 234.000,82.000 234.000 C 82.880 234.000,83.600 233.820,83.600 233.600 C 83.600 233.380,84.243 233.200,85.029 233.200 C 86.541 233.200,87.600 232.471,87.600 231.429 C 87.600 230.962,87.188 230.800,86.000 230.800 C 85.120 230.800,84.400 230.620,84.400 230.400 C 84.400 230.180,83.500 230.000,82.400 230.000 C 81.300 230.000,80.400 229.820,80.400 229.600 C 80.400 229.380,79.511 229.200,78.424 229.200 C 77.337 229.200,76.336 229.020,76.200 228.800 C 76.064 228.580,74.613 228.400,72.976 228.400 C 71.259 228.400,70.000 228.231,70.000 228.000 C 70.000 227.749,67.467 227.600,63.200 227.600 C 58.933 227.600,56.400 227.749,56.400 228.000 M147.014 239.578 C 146.870 239.810,145.964 240.000,145.000 240.000 C 144.036 240.000,143.136 240.180,143.000 240.400 C 142.864 240.620,142.144 240.800,141.400 240.800 C 140.656 240.800,139.936 240.980,139.800 241.200 C 139.664 241.420,138.764 241.600,137.800 241.600 C 136.836 241.600,135.936 241.780,135.800 242.000 C 135.664 242.220,135.124 242.400,134.600 242.400 C 134.076 242.400,133.536 242.580,133.400 242.800 C 133.264 243.020,132.724 243.200,132.200 243.200 C 131.676 243.200,131.136 243.380,131.000 243.600 C 130.864 243.820,130.450 244.000,130.079 244.000 C 129.001 244.000,122.218 247.516,121.194 248.606 C 120.681 249.153,120.022 249.600,119.730 249.600 C 119.439 249.600,119.200 249.848,119.200 250.151 C 119.200 250.454,118.934 250.923,118.608 251.193 C 117.839 251.832,116.800 253.926,116.800 254.838 C 116.800 255.231,116.620 255.664,116.400 255.800 C 116.180 255.936,116.000 257.646,116.000 259.600 C 116.000 261.554,116.180 263.264,116.400 263.400 C 116.620 263.536,116.800 263.969,116.800 264.362 C 116.800 266.656,120.502 270.400,122.771 270.400 C 123.201 270.400,123.664 270.580,123.800 270.800 C 123.936 271.020,125.466 271.200,127.200 271.200 C 128.934 271.200,130.464 271.020,130.600 270.800 C 130.736 270.580,131.276 270.400,131.800 270.400 C 132.324 270.400,132.864 270.220,133.000 270.000 C 133.136 269.780,133.676 269.600,134.200 269.600 C 134.724 269.600,135.264 269.420,135.400 269.200 C 135.536 268.980,135.976 268.800,136.378 268.800 C 138.610 268.800,141.200 266.460,141.200 264.442 C 141.200 263.539,141.380 262.800,141.600 262.800 C 141.820 262.800,142.000 262.080,142.000 261.200 C 142.000 260.320,142.180 259.600,142.400 259.600 C 142.620 259.600,142.800 259.071,142.800 258.424 C 142.800 257.777,142.980 257.136,143.200 257.000 C 143.420 256.864,143.600 256.439,143.600 256.056 C 143.600 255.181,144.499 253.207,144.900 253.203 C 145.065 253.201,145.200 252.912,145.200 252.560 C 145.200 252.209,145.740 251.417,146.400 250.800 C 147.060 250.183,147.600 249.391,147.600 249.040 C 147.600 248.667,147.934 248.400,148.400 248.400 C 148.966 248.400,149.200 248.133,149.200 247.489 C 149.200 246.988,149.478 246.181,149.818 245.695 C 150.264 245.059,150.404 244.055,150.318 242.106 L 150.200 239.400 148.737 239.278 C 147.933 239.211,147.157 239.346,147.014 239.578 M88.400 269.200 C 88.400 269.640,88.220 270.000,88.000 270.000 C 87.780 270.000,87.600 270.349,87.600 270.776 C 87.600 271.203,87.420 271.664,87.200 271.800 C 86.980 271.936,86.800 272.476,86.800 273.000 C 86.800 273.524,86.620 274.064,86.400 274.200 C 86.180 274.336,86.000 274.876,86.000 275.400 C 86.000 275.924,85.820 276.464,85.600 276.600 C 85.380 276.736,85.200 277.456,85.200 278.200 C 85.200 278.944,85.020 279.664,84.800 279.800 C 84.570 279.942,84.400 282.063,84.400 284.800 C 84.400 287.537,84.570 289.658,84.800 289.800 C 85.020 289.936,85.200 290.937,85.200 292.024 C 85.200 293.111,85.380 294.000,85.600 294.000 C 85.820 294.000,86.000 294.900,86.000 296.000 C 86.000 297.100,86.180 298.000,86.400 298.000 C 86.620 298.000,86.800 298.720,86.800 299.600 C 86.800 300.480,86.980 301.200,87.200 301.200 C 87.420 301.200,87.600 301.819,87.600 302.576 C 87.600 303.333,87.780 304.064,88.000 304.200 C 88.220 304.336,88.400 304.797,88.400 305.224 C 88.400 305.651,88.580 306.000,88.800 306.000 C 89.020 306.000,89.200 306.360,89.200 306.800 C 89.200 307.240,89.380 307.600,89.600 307.600 C 89.820 307.600,90.000 307.960,90.000 308.400 C 90.000 308.840,90.180 309.200,90.400 309.200 C 90.620 309.200,90.800 309.560,90.800 310.000 C 90.800 310.440,90.980 310.800,91.200 310.800 C 91.420 310.800,91.600 311.052,91.600 311.360 C 91.600 312.039,94.290 314.800,94.952 314.800 C 95.211 314.800,95.683 315.160,96.000 315.600 C 96.317 316.040,96.897 316.400,97.288 316.400 C 97.680 316.400,98.000 316.580,98.000 316.800 C 98.000 317.020,98.529 317.200,99.176 317.200 C 99.823 317.200,100.464 317.380,100.600 317.600 C 100.746 317.836,103.130 318.000,106.400 318.000 C 109.670 318.000,112.054 317.836,112.200 317.600 C 112.336 317.380,113.157 317.200,114.024 317.200 C 114.891 317.200,115.600 317.020,115.600 316.800 C 115.600 316.580,116.016 316.400,116.525 316.400 C 117.033 316.400,117.836 316.040,118.308 315.600 C 118.780 315.160,119.444 314.800,119.783 314.800 C 120.122 314.800,120.400 314.620,120.400 314.400 C 120.400 314.180,120.688 314.000,121.040 314.000 C 121.391 314.000,122.183 313.460,122.800 312.800 C 123.417 312.140,124.122 311.600,124.368 311.600 C 124.951 311.600,130.000 306.551,130.000 305.968 C 130.000 305.722,130.540 305.017,131.200 304.400 C 131.860 303.783,132.400 303.063,132.400 302.800 C 132.400 302.537,132.940 301.817,133.600 301.200 C 134.260 300.583,134.800 299.791,134.800 299.440 C 134.800 299.088,134.980 298.800,135.200 298.800 C 135.420 298.800,135.600 298.440,135.600 298.000 C 135.600 297.560,135.780 297.200,136.000 297.200 C 136.220 297.200,136.400 296.840,136.400 296.400 C 136.400 295.960,136.580 295.600,136.800 295.600 C 137.020 295.600,137.200 295.240,137.200 294.800 C 137.200 294.360,137.380 294.000,137.600 294.000 C 137.820 294.000,138.000 293.460,138.000 292.800 C 138.000 292.140,138.180 291.600,138.400 291.600 C 138.620 291.600,138.800 290.790,138.800 289.800 C 138.800 287.669,137.584 287.349,135.000 288.800 C 134.217 289.240,133.052 289.600,132.411 289.600 C 131.771 289.600,131.136 289.780,131.000 290.000 C 130.864 290.220,129.964 290.400,129.000 290.400 C 128.036 290.400,127.136 290.580,127.000 290.800 C 126.849 291.044,123.804 291.200,119.200 291.200 C 114.596 291.200,111.551 291.044,111.400 290.800 C 111.264 290.580,110.670 290.400,110.079 290.400 C 108.901 290.400,101.947 287.100,101.181 286.177 C 100.918 285.860,100.492 285.600,100.236 285.600 C 99.737 285.600,96.000 281.968,96.000 281.483 C 96.000 281.323,95.534 280.671,94.965 280.032 C 93.885 278.819,90.400 272.192,90.400 271.350 C 90.400 270.699,89.077 268.406,88.700 268.403 C 88.535 268.401,88.400 268.760,88.400 269.200 M158.800 291.400 C 158.800 292.390,158.980 293.200,159.200 293.200 C 159.420 293.200,159.600 293.920,159.600 294.800 C 159.600 295.680,159.780 296.400,160.000 296.400 C 160.220 296.400,160.400 296.676,160.400 297.013 C 160.400 298.589,163.067 300.400,165.387 300.400 C 166.604 300.400,167.600 300.220,167.600 300.000 C 167.600 299.780,167.884 299.600,168.231 299.600 C 168.997 299.600,174.000 294.530,174.000 293.754 C 174.000 293.449,174.180 293.200,174.400 293.200 C 174.620 293.200,174.800 292.660,174.800 292.000 C 174.800 291.340,174.980 290.800,175.200 290.800 C 175.420 290.800,175.600 290.530,175.600 290.200 C 175.600 289.686,174.400 289.600,167.200 289.600 L 158.800 289.600 158.800 291.400 M289.200 313.411 C 289.200 314.074,289.815 315.036,290.989 316.211 C 292.164 317.385,293.126 318.000,293.789 318.000 C 294.345 318.000,294.800 318.180,294.800 318.400 C 294.800 318.620,295.149 318.800,295.576 318.800 C 296.003 318.800,296.464 318.980,296.600 319.200 C 296.736 319.420,297.276 319.600,297.800 319.600 C 298.324 319.600,298.864 319.780,299.000 320.000 C 299.136 320.220,299.687 320.400,300.224 320.400 C 300.761 320.400,301.200 320.580,301.200 320.800 C 301.200 321.020,301.740 321.200,302.400 321.200 C 303.060 321.200,303.600 321.380,303.600 321.600 C 303.600 321.820,304.140 322.000,304.800 322.000 C 305.460 322.000,306.000 322.180,306.000 322.400 C 306.000 322.620,306.349 322.800,306.776 322.800 C 307.203 322.800,307.664 322.980,307.800 323.200 C 307.936 323.420,308.667 323.600,309.424 323.600 C 310.181 323.600,310.800 323.780,310.800 324.000 C 310.800 324.237,312.267 324.400,314.400 324.400 L 318.000 324.400 318.000 321.200 C 318.000 319.333,317.833 318.000,317.600 318.000 C 317.380 318.000,317.200 317.722,317.200 317.382 C 317.200 316.582,315.418 314.800,314.618 314.800 C 314.278 314.800,314.000 314.620,314.000 314.400 C 314.000 314.180,313.640 314.000,313.200 314.000 C 312.760 314.000,312.400 313.820,312.400 313.600 C 312.400 313.380,311.860 313.200,311.200 313.200 C 310.540 313.200,310.000 313.020,310.000 312.800 C 310.000 312.544,306.267 312.400,299.600 312.400 L 289.200 312.400 289.200 313.411 M146.900 319.810 C 146.405 320.339,146.000 321.048,146.000 321.386 C 146.000 321.724,145.820 322.000,145.600 322.000 C 145.367 322.000,145.200 323.333,145.200 325.200 C 145.200 327.067,145.367 328.400,145.600 328.400 C 145.820 328.400,146.000 328.855,146.000 329.411 C 146.000 333.009,151.624 335.202,154.213 332.613 L 155.600 331.227 155.600 327.013 C 155.600 324.471,155.441 322.800,155.200 322.800 C 154.980 322.800,154.800 322.524,154.800 322.187 C 154.800 319.418,148.922 317.650,146.900 319.810 M281.200 321.600 C 281.200 323.200,281.029 324.400,280.800 324.400 C 280.580 324.400,280.400 324.940,280.400 325.600 C 280.400 326.260,280.220 326.800,280.000 326.800 C 279.780 326.800,279.600 327.484,279.600 328.320 C 279.600 329.156,279.384 330.056,279.120 330.320 C 278.747 330.693,278.747 330.907,279.120 331.280 C 279.384 331.544,279.600 332.180,279.600 332.693 C 279.600 333.225,280.197 334.223,280.987 335.013 C 283.132 337.159,287.600 336.899,287.600 334.629 C 287.600 334.283,287.780 334.000,288.000 334.000 C 288.220 334.000,288.400 333.021,288.400 331.824 C 288.400 330.627,288.220 329.536,288.000 329.400 C 287.780 329.264,287.600 328.623,287.600 327.976 C 287.600 327.329,287.420 326.800,287.200 326.800 C 286.980 326.800,286.800 326.260,286.800 325.600 C 286.800 324.940,286.620 324.400,286.400 324.400 C 286.180 324.400,286.000 324.040,286.000 323.600 C 286.000 323.160,285.820 322.800,285.600 322.800 C 285.380 322.800,285.200 322.480,285.200 322.088 C 285.200 321.697,284.840 321.117,284.400 320.800 C 283.960 320.483,283.600 319.903,283.600 319.512 C 283.600 318.988,283.284 318.800,282.400 318.800 L 281.200 318.800 281.200 321.600 M178.800 322.400 C 178.800 322.620,178.516 322.800,178.169 322.800 C 177.821 322.800,176.846 323.520,176.000 324.400 C 175.154 325.280,174.264 326.000,174.021 326.000 C 173.351 326.000,170.000 329.492,170.000 330.189 C 170.000 330.525,169.820 330.800,169.600 330.800 C 169.380 330.800,169.200 331.160,169.200 331.600 C 169.200 332.040,169.020 332.400,168.800 332.400 C 168.580 332.400,168.400 333.300,168.400 334.400 C 168.400 335.500,168.580 336.400,168.800 336.400 C 169.020 336.400,169.200 336.874,169.200 337.453 C 169.200 338.032,169.515 338.800,169.900 339.159 C 170.285 339.518,170.795 340.169,171.033 340.606 C 171.271 341.043,171.856 341.578,172.333 341.795 C 172.810 342.012,173.200 342.327,173.200 342.495 C 173.200 342.663,173.560 342.800,174.000 342.800 C 174.440 342.800,174.800 342.980,174.800 343.200 C 174.800 343.420,175.451 343.600,176.246 343.600 C 178.362 343.600,180.400 341.316,180.400 338.945 C 180.400 338.011,180.580 337.136,180.800 337.000 C 181.043 336.850,181.200 333.863,181.200 329.376 L 181.200 322.000 180.000 322.000 C 179.340 322.000,178.800 322.180,178.800 322.400 " stroke="none" fill="#2cc4cc" fill-rule="evenodd"></path><path id="path1" d="M181.863 102.700 C 175.348 102.791,173.403 102.940,172.963 103.380 C 172.495 103.848,172.400 107.087,172.400 122.571 L 172.400 141.200 161.371 141.200 C 151.910 141.200,150.254 141.289,149.718 141.824 C 149.045 142.498,148.267 160.852,148.900 161.133 C 149.065 161.207,149.200 161.941,149.200 162.766 C 149.200 165.109,149.606 165.192,161.600 165.302 L 172.200 165.400 172.310 171.847 C 172.464 180.917,173.766 182.080,176.737 175.800 C 177.916 173.307,185.770 167.633,188.076 167.607 C 188.448 167.603,188.851 167.441,188.971 167.246 C 189.092 167.051,189.777 166.775,190.495 166.631 C 191.213 166.487,192.700 166.184,193.800 165.956 C 194.992 165.709,201.188 165.573,209.130 165.617 L 222.460 165.692 223.630 164.571 L 224.800 163.450 224.800 153.247 L 224.800 143.044 223.771 141.970 L 222.742 140.896 217.571 141.105 C 214.644 141.224,212.400 141.160,212.401 140.957 C 212.401 140.759,210.170 140.659,207.401 140.733 L 202.400 140.865 202.400 122.755 L 202.400 104.644 201.325 103.522 L 200.250 102.400 195.225 102.491 C 192.461 102.542,186.448 102.635,181.863 102.700 M270.976 169.787 C 270.549 170.110,269.885 170.380,269.500 170.387 C 269.115 170.394,268.800 170.580,268.800 170.800 C 268.800 171.020,268.567 171.200,268.281 171.200 C 267.706 171.200,265.279 173.700,264.500 175.095 C 262.235 179.151,266.682 187.200,271.189 187.200 C 271.609 187.200,272.064 187.380,272.200 187.600 C 272.336 187.820,272.966 188.000,273.600 188.000 C 274.234 188.000,274.864 187.820,275.000 187.600 C 275.136 187.380,275.599 187.200,276.029 187.200 C 277.050 187.200,278.191 186.540,280.351 184.700 C 281.320 183.875,282.267 183.200,282.456 183.200 C 282.645 183.200,282.800 182.570,282.800 181.800 C 282.800 181.030,282.963 180.400,283.162 180.400 C 284.611 180.400,282.521 174.942,280.174 172.595 C 279.198 171.619,278.400 170.636,278.400 170.411 C 278.400 170.185,277.770 170.000,277.000 170.000 C 276.230 170.000,275.600 169.820,275.600 169.600 C 275.600 168.976,271.848 169.128,270.976 169.787 M210.675 170.722 L 209.600 171.844 209.600 178.860 C 209.600 186.987,209.686 187.200,212.960 187.200 C 215.245 187.200,216.000 186.561,216.000 184.629 C 216.000 183.597,216.174 183.200,216.629 183.200 C 217.282 183.200,218.400 184.115,218.400 184.650 C 218.400 185.803,220.648 187.200,222.503 187.200 C 225.293 187.200,226.274 186.117,224.900 184.555 C 222.921 182.305,222.841 181.568,224.400 179.937 C 227.035 177.179,224.616 170.400,220.997 170.400 C 220.475 170.400,219.936 170.220,219.800 170.000 C 219.156 168.959,211.807 169.540,210.675 170.722 M231.475 170.722 L 230.400 171.844 230.400 178.860 C 230.400 187.109,230.440 187.200,234.070 187.200 C 237.540 187.200,237.600 187.055,237.600 178.743 L 237.600 171.750 236.478 170.675 C 234.927 169.189,232.925 169.208,231.475 170.722 M249.000 170.000 C 248.864 170.220,248.403 170.400,247.976 170.400 C 247.549 170.400,247.200 170.580,247.200 170.800 C 247.200 171.020,246.967 171.200,246.681 171.200 C 246.106 171.200,243.679 173.700,242.900 175.095 C 240.635 179.151,245.082 187.200,249.589 187.200 C 250.009 187.200,250.464 187.380,250.600 187.600 C 250.736 187.820,251.366 188.000,252.000 188.000 C 252.634 188.000,253.264 187.820,253.400 187.600 C 253.536 187.380,254.076 187.200,254.600 187.200 C 255.124 187.200,255.664 187.020,255.800 186.800 C 255.936 186.580,256.315 186.400,256.642 186.400 C 258.812 186.400,260.377 179.919,258.629 178.171 C 256.967 176.509,253.600 177.816,253.600 180.122 C 253.600 181.711,252.644 182.804,251.903 182.063 C 251.648 181.808,251.062 181.600,250.600 181.600 C 249.254 181.600,248.800 180.792,248.800 178.400 C 248.800 175.612,249.206 175.200,251.954 175.200 C 253.661 175.200,254.355 175.395,255.080 176.075 L 256.012 176.951 257.606 175.394 C 259.983 173.074,259.772 172.388,256.115 170.537 C 254.156 169.545,249.498 169.193,249.000 170.000 M288.267 170.267 C 288.120 170.413,288.000 171.933,288.000 173.643 C 288.000 175.353,287.832 176.857,287.626 176.984 C 287.190 177.254,287.565 180.137,288.062 180.333 C 288.248 180.407,288.400 181.147,288.400 181.979 C 288.400 183.459,289.610 185.600,290.446 185.600 C 290.659 185.600,291.220 185.960,291.692 186.400 C 292.164 186.840,292.956 187.200,293.452 187.200 C 293.947 187.200,294.464 187.380,294.600 187.600 C 294.736 187.820,295.366 188.000,296.000 188.000 C 296.634 188.000,297.264 187.820,297.400 187.600 C 297.536 187.380,297.999 187.200,298.429 187.200 C 299.829 187.200,303.200 184.779,303.200 183.774 C 303.200 183.512,303.470 183.074,303.800 182.800 C 304.286 182.397,304.400 181.131,304.400 176.151 L 304.400 170.000 301.771 170.000 C 298.031 170.000,298.000 170.054,298.000 176.571 L 298.000 182.000 296.400 182.000 C 295.067 182.000,294.800 181.867,294.800 181.200 C 294.800 180.760,294.620 180.400,294.400 180.400 C 294.154 180.400,294.000 178.400,294.000 175.200 L 294.000 170.000 291.267 170.000 C 289.763 170.000,288.413 170.120,288.267 170.267 M310.528 170.568 C 310.021 171.146,309.666 181.799,310.138 182.271 C 310.282 182.415,310.400 183.326,310.400 184.295 C 310.400 186.587,311.056 187.200,313.509 187.200 C 315.827 187.200,316.800 186.393,316.800 184.469 C 316.800 182.762,317.164 182.862,319.236 185.139 C 321.153 187.247,323.864 188.074,325.333 186.999 C 326.245 186.333,326.172 184.701,325.200 184.000 C 324.760 183.683,324.400 183.118,324.400 182.745 C 324.400 182.372,324.175 181.990,323.900 181.895 C 323.584 181.787,323.879 181.274,324.700 180.501 C 327.359 178.001,325.810 170.800,322.613 170.800 C 322.276 170.800,322.000 170.620,322.000 170.400 C 322.000 169.748,311.108 169.907,310.528 170.568 M319.029 175.371 C 320.289 176.632,319.753 178.000,318.000 178.000 L 316.400 178.000 316.400 176.400 C 316.400 174.647,317.768 174.111,319.029 175.371 M219.200 176.400 C 219.200 177.533,219.111 177.600,217.600 177.600 C 216.089 177.600,216.000 177.533,216.000 176.400 C 216.000 175.267,216.089 175.200,217.600 175.200 C 219.111 175.200,219.200 175.267,219.200 176.400 M275.874 176.070 C 277.443 177.544,276.788 181.590,274.980 181.597 C 274.529 181.599,273.969 181.791,273.737 182.023 C 271.932 183.828,269.149 177.782,270.880 175.820 C 271.712 174.877,274.768 175.030,275.874 176.070 M126.600 181.200 C 126.464 181.420,125.564 181.600,124.600 181.600 C 123.636 181.600,122.736 181.780,122.600 182.000 C 122.464 182.220,121.924 182.400,121.400 182.400 C 120.876 182.400,120.336 182.580,120.200 182.800 C 120.064 183.020,119.524 183.200,119.000 183.200 C 118.476 183.200,117.936 183.380,117.800 183.600 C 117.664 183.820,117.222 184.000,116.817 184.000 C 116.412 184.000,115.055 184.540,113.800 185.200 C 112.545 185.860,111.220 186.400,110.855 186.400 C 110.490 186.400,109.707 186.850,109.113 187.400 C 108.520 187.950,107.757 188.400,107.417 188.400 C 107.078 188.400,106.800 188.580,106.800 188.800 C 106.800 189.020,106.480 189.200,106.088 189.200 C 105.697 189.200,105.117 189.560,104.800 190.000 C 104.483 190.440,104.010 190.800,103.748 190.800 C 103.032 190.800,96.400 197.457,96.400 198.175 C 96.400 198.519,96.220 198.800,96.000 198.800 C 95.780 198.800,95.600 199.443,95.600 200.229 C 95.600 201.626,96.317 202.800,97.171 202.800 C 97.406 202.800,98.341 203.520,99.248 204.400 C 100.155 205.280,101.105 206.000,101.360 206.000 C 101.615 206.000,102.083 206.360,102.400 206.800 C 102.717 207.240,103.221 207.600,103.520 207.600 C 103.818 207.600,104.754 208.320,105.600 209.200 C 106.446 210.080,107.337 210.800,107.582 210.800 C 107.827 210.800,108.657 211.430,109.427 212.200 C 111.191 213.964,114.000 213.515,114.000 211.468 C 114.000 210.958,119.976 205.200,120.505 205.200 C 120.790 205.200,121.283 204.840,121.600 204.400 C 121.917 203.960,122.497 203.600,122.888 203.600 C 123.280 203.600,123.600 203.420,123.600 203.200 C 123.600 202.980,124.140 202.800,124.800 202.800 C 125.460 202.800,126.000 202.620,126.000 202.400 C 126.000 202.180,126.360 202.000,126.800 202.000 C 127.240 202.000,127.600 201.820,127.600 201.600 C 127.600 201.367,128.933 201.200,130.800 201.200 C 132.667 201.200,134.000 201.033,134.000 200.800 C 134.000 200.580,134.360 200.400,134.800 200.400 C 135.240 200.400,135.600 200.580,135.600 200.800 C 135.600 201.029,136.800 201.200,138.400 201.200 C 140.000 201.200,141.200 201.371,141.200 201.600 C 141.200 201.820,141.560 202.000,142.000 202.000 C 142.440 202.000,142.800 202.180,142.800 202.400 C 142.800 202.620,143.075 202.800,143.411 202.800 C 144.310 202.800,147.600 206.247,147.600 207.189 C 147.600 207.635,147.860 208.000,148.177 208.000 C 148.495 208.000,149.016 208.373,149.335 208.828 L 149.915 209.657 150.557 208.739 C 151.491 207.406,151.504 183.436,150.571 182.202 C 150.057 181.521,149.914 181.491,149.601 181.999 C 149.308 182.472,149.132 182.492,148.737 182.097 C 148.463 181.823,147.297 181.600,146.144 181.600 C 144.991 181.600,143.936 181.420,143.800 181.200 C 143.648 180.954,140.337 180.800,135.200 180.800 C 130.063 180.800,126.752 180.954,126.600 181.200 M189.600 184.372 C 187.102 185.338,183.744 187.145,183.176 187.829 C 182.915 188.143,182.477 188.400,182.202 188.400 C 181.723 188.400,180.231 189.955,177.200 193.614 C 174.234 197.193,174.435 195.195,174.417 221.300 L 174.400 244.800 162.675 244.800 C 147.777 244.800,149.200 243.848,149.200 253.816 C 149.200 260.316,149.123 261.200,148.560 261.200 C 148.209 261.200,147.417 261.740,146.800 262.400 C 146.183 263.060,145.431 263.600,145.128 263.600 C 144.825 263.600,144.317 263.960,144.000 264.400 C 143.683 264.840,143.169 265.200,142.859 265.200 C 142.548 265.200,142.003 265.527,141.647 265.928 C 141.291 266.328,140.730 266.780,140.400 266.932 C 140.070 267.084,139.260 267.554,138.600 267.975 C 137.940 268.397,137.006 268.755,136.524 268.771 C 136.042 268.787,135.536 268.980,135.400 269.200 C 135.264 269.420,134.724 269.600,134.200 269.600 C 133.676 269.600,133.136 269.780,133.000 270.000 C 132.864 270.220,132.324 270.400,131.800 270.400 C 131.276 270.400,130.736 270.580,130.600 270.800 C 130.464 271.020,128.934 271.200,127.200 271.200 C 125.466 271.200,123.936 271.020,123.800 270.800 C 123.664 270.580,123.231 270.400,122.838 270.400 C 120.544 270.400,116.800 266.698,116.800 264.429 C 116.800 263.999,116.620 263.536,116.400 263.400 C 116.180 263.264,116.000 261.554,116.000 259.600 C 116.000 257.646,116.180 255.936,116.400 255.800 C 116.620 255.664,116.800 255.231,116.800 254.838 C 116.800 253.926,117.839 251.832,118.608 251.193 C 118.934 250.923,119.200 250.454,119.200 250.151 C 119.200 249.848,119.439 249.600,119.730 249.600 C 120.022 249.600,120.681 249.153,121.194 248.606 C 122.218 247.516,129.001 244.000,130.079 244.000 C 130.450 244.000,130.864 243.820,131.000 243.600 C 131.136 243.380,131.676 243.200,132.200 243.200 C 132.724 243.200,133.264 243.020,133.400 242.800 C 133.536 242.580,134.076 242.400,134.600 242.400 C 135.124 242.400,135.664 242.220,135.800 242.000 C 135.936 241.780,136.836 241.600,137.800 241.600 C 138.764 241.600,139.664 241.420,139.800 241.200 C 139.936 240.980,140.656 240.800,141.400 240.800 C 142.144 240.800,142.864 240.620,143.000 240.400 C 143.136 240.180,144.036 240.000,145.000 240.000 C 145.964 240.000,146.864 239.820,147.000 239.600 C 147.136 239.380,147.928 239.200,148.759 239.200 C 150.997 239.200,151.200 238.435,151.200 230.000 C 151.200 220.942,151.147 220.800,147.759 220.800 C 146.378 220.800,145.136 220.980,145.000 221.200 C 144.864 221.420,143.784 221.600,142.600 221.600 C 141.416 221.600,140.336 221.780,140.200 222.000 C 140.064 222.220,138.984 222.400,137.800 222.400 C 136.616 222.400,135.536 222.580,135.400 222.800 C 135.264 223.020,134.364 223.200,133.400 223.200 C 132.436 223.200,131.536 223.380,131.400 223.600 C 131.264 223.820,130.724 224.000,130.200 224.000 C 129.676 224.000,129.136 224.180,129.000 224.400 C 128.864 224.620,127.964 224.800,127.000 224.800 C 126.036 224.800,125.136 224.980,125.000 225.200 C 124.864 225.420,124.324 225.600,123.800 225.600 C 123.276 225.600,122.736 225.780,122.600 226.000 C 122.464 226.220,121.924 226.400,121.400 226.400 C 120.876 226.400,120.336 226.580,120.200 226.800 C 120.064 227.020,119.609 227.200,119.189 227.200 C 118.768 227.200,117.822 227.538,117.085 227.952 C 116.349 228.366,115.173 228.830,114.473 228.984 C 113.773 229.138,113.200 229.429,113.200 229.632 C 113.200 229.834,112.840 230.000,112.400 230.000 C 111.960 230.000,111.600 230.180,111.600 230.400 C 111.600 230.620,111.100 230.800,110.488 230.800 C 109.835 230.800,109.139 231.130,108.800 231.600 C 108.483 232.040,107.903 232.400,107.512 232.400 C 107.120 232.400,106.800 232.580,106.800 232.800 C 106.800 233.020,106.480 233.200,106.088 233.200 C 105.697 233.200,105.117 233.560,104.800 234.000 C 104.483 234.440,103.975 234.800,103.672 234.800 C 103.369 234.800,102.617 235.340,102.000 236.000 C 101.383 236.660,100.726 237.204,100.540 237.209 C 99.982 237.225,97.200 239.883,97.200 240.400 C 97.200 240.664,96.660 241.383,96.000 242.000 C 95.340 242.617,94.800 243.369,94.800 243.672 C 94.800 243.975,94.440 244.483,94.000 244.800 C 93.560 245.117,93.200 245.697,93.200 246.088 C 93.200 246.480,93.020 246.800,92.800 246.800 C 92.580 246.800,92.400 247.160,92.400 247.600 C 92.400 248.040,92.220 248.400,92.000 248.400 C 91.780 248.400,91.600 248.940,91.600 249.600 C 91.600 250.260,91.420 250.800,91.200 250.800 C 90.980 250.800,90.800 251.160,90.800 251.600 C 90.800 252.040,90.620 252.400,90.400 252.400 C 90.178 252.400,90.000 253.467,90.000 254.800 C 90.000 256.133,89.822 257.200,89.600 257.200 C 88.913 257.200,89.093 268.386,89.802 269.746 C 90.131 270.376,90.400 271.104,90.400 271.364 C 90.400 272.196,93.894 278.829,94.965 280.032 C 95.534 280.671,96.000 281.336,96.000 281.512 C 96.000 281.993,99.763 285.600,100.265 285.600 C 100.505 285.600,100.918 285.860,101.181 286.177 C 101.947 287.100,108.901 290.400,110.079 290.400 C 110.670 290.400,111.264 290.580,111.400 290.800 C 111.551 291.044,114.596 291.200,119.200 291.200 C 123.804 291.200,126.849 291.044,127.000 290.800 C 127.136 290.580,128.036 290.400,129.000 290.400 C 129.964 290.400,130.864 290.220,131.000 290.000 C 131.136 289.780,131.771 289.600,132.411 289.600 C 133.052 289.600,134.217 289.240,135.000 288.800 C 135.783 288.360,136.946 288.000,137.584 288.000 C 138.221 288.000,139.013 287.730,139.343 287.400 C 139.673 287.070,140.186 286.800,140.483 286.800 C 140.780 286.800,141.283 286.440,141.600 286.000 C 141.918 285.559,142.635 285.200,143.200 285.200 C 143.765 285.200,144.482 284.841,144.800 284.400 C 145.117 283.960,145.697 283.600,146.088 283.600 C 146.480 283.600,146.800 283.420,146.800 283.200 C 146.800 282.980,147.120 282.800,147.512 282.800 C 147.903 282.800,148.483 282.440,148.800 282.000 C 149.822 280.583,150.800 280.974,150.800 282.800 C 150.800 283.680,150.980 284.400,151.200 284.400 C 151.420 284.400,151.600 285.223,151.600 286.229 C 151.600 289.233,151.480 289.198,162.686 289.474 C 175.653 289.794,178.000 289.563,178.000 287.968 C 178.000 287.326,177.820 286.800,177.600 286.800 C 177.380 286.800,177.200 286.080,177.200 285.200 C 177.200 284.320,177.020 283.600,176.800 283.600 C 176.580 283.600,176.400 283.240,176.400 282.800 C 176.400 282.360,176.580 282.000,176.800 282.000 C 177.435 282.000,177.264 280.510,176.600 280.255 C 176.081 280.056,176.000 277.962,176.000 264.779 C 176.000 249.186,176.113 248.099,177.458 250.773 C 178.093 252.037,181.255 255.200,181.883 255.200 C 182.167 255.200,182.400 255.359,182.400 255.554 C 182.400 255.749,183.005 256.196,183.745 256.547 C 184.485 256.898,185.317 257.459,185.594 257.793 C 185.871 258.127,186.515 258.400,187.025 258.400 C 187.535 258.400,188.064 258.580,188.200 258.800 C 188.336 259.020,188.876 259.200,189.400 259.200 C 189.924 259.200,190.464 259.380,190.600 259.600 C 190.736 259.820,191.456 260.000,192.200 260.000 C 192.944 260.000,193.664 260.180,193.800 260.400 C 193.955 260.650,197.930 260.800,204.400 260.800 C 210.870 260.800,214.845 260.650,215.000 260.400 C 215.136 260.180,216.576 260.000,218.200 260.000 C 219.824 260.000,221.264 259.820,221.400 259.600 C 221.536 259.380,222.059 259.200,222.562 259.200 C 224.696 259.200,224.800 258.638,224.800 247.130 C 224.800 237.363,224.742 236.472,224.069 235.862 C 223.262 235.132,221.388 234.972,221.000 235.600 C 220.864 235.820,219.964 236.000,219.000 236.000 C 218.036 236.000,217.136 236.180,217.000 236.400 C 216.573 237.090,206.333 236.905,204.881 236.180 C 202.344 234.915,202.400 235.527,202.400 209.214 C 202.400 180.631,203.128 183.581,196.084 183.638 C 192.664 183.666,190.914 183.864,189.600 184.372 " stroke="none" fill="#0d0e0e" fill-rule="evenodd"></path><path id="path2" d="M149.450 164.706 C 149.750 164.902,149.966 167.851,150.096 173.526 C 150.224 179.107,150.448 182.208,150.746 182.506 C 151.398 183.158,151.382 207.316,150.728 208.526 C 150.146 209.606,150.202 220.884,150.796 221.993 C 151.348 223.025,151.326 237.017,150.770 238.056 C 150.225 239.075,150.047 245.714,150.580 245.181 C 150.803 244.957,155.799 244.800,162.680 244.800 L 174.400 244.800 174.417 221.300 C 174.435 195.195,174.234 197.193,177.200 193.614 C 180.231 189.955,181.723 188.400,182.202 188.400 C 182.477 188.400,182.916 188.142,183.178 187.826 C 183.799 187.078,187.850 184.977,190.228 184.170 C 191.632 183.693,193.279 183.568,196.849 183.668 L 201.601 183.800 201.601 174.708 L 201.600 165.615 200.615 165.368 C 199.530 165.096,196.881 165.325,193.800 165.959 C 192.700 166.185,191.213 166.487,190.495 166.631 C 189.777 166.775,189.092 167.051,188.971 167.246 C 188.851 167.441,188.448 167.603,188.076 167.607 C 186.644 167.623,181.840 170.481,179.553 172.678 C 177.323 174.820,176.627 175.739,175.662 177.816 C 173.734 181.970,172.443 179.671,172.310 171.847 L 172.200 165.400 161.413 165.293 C 155.029 165.230,150.466 165.026,150.233 164.793 C 150.017 164.577,149.651 164.403,149.420 164.406 C 149.153 164.410,149.164 164.519,149.450 164.706 " stroke="none" fill="#ea332c" fill-rule="evenodd"></path></g></svg>